<?xml version="1.0" encoding="utf-8"?>
<!-- Generator: Adobe Illustrator 26.0.1, SVG Export Plug-In . SVG Version: 6.00 Build 0)  -->
<svg version="1.1" id="Layer_1" xmlns="http://www.w3.org/2000/svg" xmlns:xlink="http://www.w3.org/1999/xlink" x="0px" y="0px"
	 viewBox="0 0 595.3 595.3" style="enable-background:new 0 0 595.3 595.3;" xml:space="preserve">
<style type="text/css">
	.st0{clip-path:url(#SVGID_00000106827881577870840400000015131436333643727747_);}
	.st1{fill:#FF15AB;}
	.st2{fill:#16213A;}
	.st3{fill:#FFFFFF;}
</style>
<g>
	<defs>
		<rect id="SVGID_1_" x="0" y="0" width="595.3" height="595.3"/>
	</defs>
	<clipPath id="SVGID_00000140703611205964131870000001003381003983168909_">
		<use xlink:href="#SVGID_1_"  style="overflow:visible;"/>
	</clipPath>
	<g style="clip-path:url(#SVGID_00000140703611205964131870000001003381003983168909_);">
		<path class="st1" d="M525.1,290.3c-2.5-0.4-5.3,1.1-5.9,3.8c-7.5,29.3-13.6,59.1-17.2,89.6c-3.5,30.2-4.4,61.2-1.1,92.1
			c0.1,1,0.2,2,0.3,3c-13-28.6-26.4-57.1-40.2-85.4c-21-43.1-42.8-85.7-65.5-127.8c-6.3-11.7-12.6-23.4-19.1-35
			c-5.8-10.4-12.1-20.9-21.6-28c-4.2-3.1-8.8,0.3-8.3,5.3c5.4,54.2,18.2,107.9,36.5,159.9c18.2,52,42,102,69.8,149.5
			c8.3,14.1,16.8,28.1,25.3,42.1c-12.8-11.6-26.1-22.4-40-32.2c-7.7-5.4-15.6-10.6-23.5-15.6c-5.7-3.6-10.8,2.3-7.1,8.3
			c17,27.1,37.3,52,60.3,73.4c15.8,14.7,32,32.3,51.8,40.9c27.6,12.1,43.2-7,59.3-26.7c15-18.3,24.4-41.9,27.4-66.9
			c1.7-14,1.4-28.3-1-42.5c-0.8-5-6.4-7.2-9.8-4.4c-9.4,7.7-18.6,15.8-26.9,24.9c-2.9,3.2-5.7,6.5-8.5,9.8
			c2.8-24.5,3.1-49.5,1.5-74.7c-2.2-33.9-8-67.9-16-101.3c-4.5-18.9-9.6-37.8-15.2-56.5C529.6,293.1,527.9,290.7,525.1,290.3z"/>
		<path class="st2" d="M516.6,618.5c-7.7-3.7-16.6-2.9-24.4-5.9c-9.9-3.8-9.4-14.3-10.5-23.2c-0.6-4.9-1.8-10.1-5.1-13.9
			c-3.4-4-8.4-5.9-13.3-7.4c-5.8-1.8-11.2-3.6-15.2-8.5c-2-2.5-3.3-5.3-4.2-8.3c-0.9-2.8-0.6-5.9-2-8.5c-0.1-0.2-0.4-0.4-0.6-0.1
			c-3.2,3.3-1.7,9.8-0.3,13.6c1.9,5,5.5,9.6,10,12.4c4.5,2.9,9.7,4,14.5,5.9c5,2,8.3,5.3,9.5,10.6c2.3,9.9,0.1,21.5,8.4,29.1
			c6.4,5.8,15.7,6,23.7,7.6c4.5,0.9,9.2,2.5,12,6.5c4.1,6,3.5,13.9,6.9,20.3c1.3,2.4,5.7,1.6,4.9-1.5c-1.5-6.1-2.1-12.4-4.5-18.3
			C524.6,624.3,521.2,620.8,516.6,618.5z"/>
		<path class="st2" d="M536.6,588.9c-5.6-2.8-11.9-3.4-17.7-5.7c-7.5-3-10.3-9.7-10.6-17.4c-0.4-8.5,1.4-17.1,1.4-25.6
			c-0.1-8.4-1.4-16.8-5.9-24c-3.3-5.4-8.1-9.5-13.4-12.9c-10.1-6.5-22.7-10.1-31.2-18.9c-5.1-5.3-7.1-11.9-7.1-19.1
			c-0.1-8.7,1.3-17.3,1.2-26c-0.1-8.3-0.9-16.6-3.8-24.5c-2.8-7.6-7.6-13.8-13.9-18.7c-5.9-4.6-13-8.6-16.6-15.4
			c-3.4-6.7-3.2-14.4-3.4-21.8c-0.2-7.6-0.6-15.3-4-22.4c-3.8-7.9-9.7-14.3-16-20.3c-10.8-10.3-24.8-22.9-21.6-39.6
			c0.6-3.4,2.2-6.7,4.4-9.4c0.5-0.7-0.4-1.5-1.1-1c-10.9,9.2-6.9,25.7,0.3,35.9c10,14.1,28.6,23.6,32.3,41.5c3,14.7-2.8,31,7.3,43.9
			c4.8,6.1,11.7,9.9,17.4,15c6.2,5.6,9.8,13.2,11.3,21.3c1.7,8.6,1.4,17.4,0.8,26.1c-0.6,8.4-2,17.2,0.2,25.5
			c3.4,13.2,14.9,20.1,26.3,26c11.6,6,24.2,11.8,28.4,25.2c2.7,8.4,2.1,17.5,1.3,26.1c-0.8,8.2-1.8,16.9,1.5,24.7
			c2.8,6.7,8.7,10.6,15.4,12.7c5.7,1.8,12.6,2.5,17.3,6.6c5.7,5,4.4,14.1,2.5,20.5c-2.2,7.4-5.7,14.3-7.1,21.9
			c-0.7,4-0.4,7.4,1.1,11.2c1.2,2.9,5.6,2.1,5.9-0.9c0.7-7.3,2.7-14.1,5.1-21c2.5-7.4,4.8-14.9,3.7-22.8
			C547.4,598.3,543.2,592.3,536.6,588.9z"/>
		<path class="st2" d="M528.4,343.3c-6,7.2-11.8,15.2-14.2,24.4c-2.8,10.8,1,20.3,7.4,29c3.6,4.8,7.2,9.5,9.7,15
			c2.3,5.2,3.5,10.6,3.8,16.3c0.5,10.1-2.8,19.7-5.7,29.2c-2.7,8.9-5,18.4-2.5,27.7c3.1,11.3,13,18.4,17.3,29.1
			c2,5,2.9,10.5,2.5,15.8c-0.3,5-1.8,9.7-3.1,14.5c-2.9,10.2-4.5,20.3,1.3,29.8c3.3,5.4,7.9,9.6,11.7,14.6c3.3,4.3,5.1,9.2,5.3,14.7
			c0.1,5.3-1.1,10.6-2.8,15.6c-1,2.9-2,5.8-3,8.6c-0.5,1.4-1.2,2.8-1.3,4.2c-0.2,1.5,0.5,3,1,4.4c0.4,1.2,2,1.6,3,1.1
			c1.1-0.4,2.3-0.9,3.2-1.6c1-0.8,1.5-2.2,2.1-3.3c1.3-2.5,2.5-4.9,3.4-7.6c1.8-5,3.2-10.2,3.8-15.4c0.6-5.3,0.3-10.6-1.3-15.6
			c-1.6-5.3-4.6-9.8-8.2-13.9c-3.3-3.9-7.3-7.5-9.6-12.1c-2.2-4.3-2.3-8.7-1.6-13.4c0.7-4.8,2.2-9.4,3.3-14.1
			c1.3-5.3,1.8-10.6,1.4-16c-0.4-5.6-2-11.2-4.4-16.3c-2.6-5.3-6.3-9.8-9.9-14.4c-3.2-4.1-5.8-8.3-6.6-13.5
			c-0.6-4.2-0.1-8.6,0.7-12.8c1.8-9.2,5.4-18,6.6-27.4c1.5-10.9-0.9-22.6-5.8-32.3c-5.6-11-18-20-17.9-33.2
			c0-10.9,7.1-20.6,12.8-29.3C532,343.4,529.7,341.8,528.4,343.3z"/>
		<path class="st2" d="M598.3,522.2c-6.4,3.8-11.8,10.9-14.7,17.7c-3,7-3.8,15.3-0.8,22.5c3,7.1,10,12.1,10.2,20.3
			c0.1,3.4-0.7,6.7-1.3,10c-0.3,1.9-0.9,3.9-0.9,5.8c-0.1,2,0.7,3.9,1.4,5.7c0.6,1.8,3,2,4.3,1c1.6-1.1,3.1-2.2,4.1-3.8
			c1-1.6,1.5-3.4,2-5.2c1.2-3.8,1.6-7.9,1.3-11.9c-0.5-8.2-5.1-14.2-10.1-20.3c-2.3-2.8-4.2-5.7-4.9-9.4c-0.6-3.5-0.2-7.1,0.8-10.5
			c1.1-3.7,2.7-7.3,4.7-10.7c1.9-3.3,4-6.4,5.2-10C599.9,522.8,599.1,521.8,598.3,522.2z"/>
		<path class="st3" d="M394,304.3c-1.2,0.6-2.1,1.1-3.2,2.2c-1,1-2.1,2-2.9,3.1c-1.3,1.8-2.7,3.6-3.9,5.5c-1.2,1.9-2.4,3.8-3.5,5.8
			c-0.7,1.2-1.2,2.5-1.8,3.7c-0.1,0.2-0.6,1.3-0.7,1.7c0,0,0,0,0,0c-0.1,0.1-0.2,0.3-0.2,0.4c0,0,0,0.1,0,0.1c0,0,0,0,0,0
			c-0.2,0.4-0.2,0.9-0.2,1.3c0.1,0.8,0.7,1.8,1.6,2c1.5,0.4,2.9,0.3,4.2-0.7c0.9-0.7,1.7-1.6,2.5-2.4c1.9-1.8,3.5-3.9,5.1-5.9
			c1.5-1.9,2.9-3.9,4.3-5.8c1.3-1.9,2.7-4.2,3.1-6.6c0.1-0.4,0.2-0.9,0.3-1.3C398.7,305.2,396.2,303.3,394,304.3z"/>
		<path class="st3" d="M428.1,356.6c-1.5-2.2-5-2.6-7.5-2.8c-2.7-0.2-5.3-0.3-8-0.4c-2.6-0.1-5.2-0.2-7.8-0.2c-1.4,0-2.7,0-4.1,0.1
			c-1.4,0.1-2.7,0.2-4.1,0.2c-0.6,0-0.8,0.8-0.2,1c1.3,0.5,2.4,1.2,3.7,1.7c1.3,0.5,2.5,1,3.8,1.4c2.7,0.9,5.4,1.5,8.1,2.1
			c2.6,0.5,5.2,1,7.9,1.2c2.8,0.3,6.3,0.3,8.3-2.1C428.7,358.1,428.5,357.2,428.1,356.6z"/>
		<path class="st3" d="M440,380.7c-4.7,4.5-8.4,9.7-12.1,15.1c-1.8,2.8-3.5,5.5-5,8.5c-1.3,2.7-3.2,6.4-2.2,9.4c0.3,0.8,1.3,1,2,0.8
			c1.2-0.4,2.5-1.9,3.3-2.9c1-1.3,1.7-2.8,2.5-4.2c1.6-2.9,3-5.8,4.4-8.8c2.7-5.8,5.5-11.3,7.8-17.3
			C441,380.8,440.3,380.3,440,380.7z"/>
		<path class="st3" d="M461.8,444.7c-4.5-2.4-10.1-2.6-15-3.2c-5.1-0.7-10.3-1.1-15.5-1.6c-0.6-0.1-0.9,0.9-0.3,1.1
			c4.9,1.3,9.9,2.8,14.8,4c2.5,0.6,5,1.2,7.5,1.8c2.5,0.5,5.2,1,7.8,0.7C462.3,447.3,463,445.4,461.8,444.7z"/>
		<path class="st3" d="M478.2,461.1c-6.1,6.5-10.4,14.8-14.4,22.7c-2,4.1-4.2,8.2-5.9,12.4c-1.5,3.7-3.9,8.6-3,12.8
			c0,1,0,1.8,0.3,2.8c0.5,1.4,2.2,1.4,3.2,0.8c0.7-0.5,1.2-1.1,1.7-1.8c3.2-2.6,4.5-7.4,6-11.1c1.7-4.2,3-8.6,4.6-12.9
			c3-8.3,6.6-16.8,8.1-25.4C478.8,461.1,478.4,460.8,478.2,461.1z"/>
		<path class="st3" d="M507.2,524.4c-0.8-0.7-1.5-1.3-2.4-1.9c-1.3-0.7-2.6-1.1-4-1.4c-2.2-0.4-4.5-0.6-6.7-0.8
			c-2.4-0.2-4.7-0.4-7.1-0.2c-2.1,0.1-4.3,0.1-6.2,1.1c-0.4,0.2-0.6,0.8-0.3,1.1c0.8,0.7,1.5,1.2,2.4,1.6c1,0.5,2,0.9,3,1.3
			c2.3,0.9,4.6,1.4,7,2c2.2,0.5,4.4,1,6.7,1.3c2.6,0.3,4.8-0.2,7.1-1.2C508.1,526.7,508.1,525.2,507.2,524.4z"/>
		<path class="st3" d="M459.8,559.5c-1.4-0.9-2.9-1.4-4.5-1.7c-1.5-0.3-3-0.5-4.5-0.7c-1.5-0.2-2.9-0.3-4.4-0.4
			c-0.8-0.1-1.6-0.1-2.4,0c-0.7,0.1-1.4,0.3-2.1,0.4c-0.7,0.1-0.9,1-0.3,1.4c0.3,0.2,0.5,0.4,0.8,0.6c-0.1-0.2-0.3-0.3-0.4-0.5
			c0.8,1.3,2.5,1.9,3.9,2.4c1.5,0.5,3,1,4.6,1.3c3,0.6,6.3,1,9.2-0.3C460.5,561.6,460.7,560.1,459.8,559.5z"/>
		<path class="st3" d="M481.1,570.5c-0.5,1.7-1,3.3-1.7,5c-0.6,1.5-0.9,3.1-1.3,4.7c-0.4,1.7-0.8,3.4-1.1,5.2
			c-0.1,1-0.2,1.9-0.1,2.9c0,0.9,0.3,1.7,0.5,2.5c0.2,1,1.8,1.7,2.4,0.6c0.5-0.8,1-1.5,1.3-2.3c0.3-0.9,0.6-1.9,0.7-2.8
			c0.3-1.7,0.4-3.3,0.5-5c0.1-1.7,0.2-3.4,0.1-5.1c-0.1-1.8-0.1-3.5-0.2-5.3C482.2,570.1,481.3,569.8,481.1,570.5z"/>
		<path class="st3" d="M506,604.1c-0.5-0.6-1.1-0.8-1.9-1c-0.1,0-0.1,0-0.2,0c-0.1,0-0.2-0.1-0.3-0.1c-0.5-0.4-1.1-0.6-1.7-0.7
			c-0.6,0-1.1,0-1.7,0c-0.8,0-1.5,0-2.3,0.1c-0.7,0.1-1.4,0.1-2.1,0.2c-0.7,0-1.3,0.2-1.9,0.4c-0.6,0.2-1.2,0.3-1.7,0.6
			c-0.4,0.2-0.4,0.2-0.1,0.1c0.3-0.2,0.2-0.1-0.4,0.2c0,0-0.1,0.1-0.1,0.1c0.1,0,0.1,0,0.1,0c-1.3,0.4-1.7,1.9-0.7,2.8
			c0,0,0,0,0.1,0.1c0.6,1,1.7,1.7,2.7,2.2c1,0.5,2.1,0.7,3.2,0.9c1.2,0.2,2.3,0.2,3.4,0.2c0.5,0,1-0.1,1.4-0.1
			c0.8-0.1,1.5-0.4,2.1-0.9c0.1-0.1,0.2-0.2,0.3-0.4c1.2-0.7,2.4-1.4,2.3-3C506.5,605.1,506.3,604.6,506,604.1z"/>
		<path class="st3" d="M560.6,547.3c-0.3-0.6-0.8-1-1.3-1.5c-1-0.9-2.1-1.6-3.3-2.3c-2.2-1.2-4.4-2.2-6.6-3.3c-2-1-4.1-1.8-6.2-2.5
			c-1.1-0.4-2.3-0.8-3.4-1c-1.2-0.2-2.3-0.4-3.5-0.7c-0.6-0.2-0.9,0.5-0.5,0.9c0.9,0.8,1.6,1.6,2.3,2.5c0.7,0.8,1.7,1.6,2.5,2.3
			c1.8,1.5,3.6,2.8,5.6,4.1c1.9,1.2,3.7,2.5,5.6,3.6c1.1,0.6,2.2,1.3,3.4,1.7c0.6,0.2,1.2,0.4,1.8,0.5c0.7,0.1,1.3,0,1.9,0
			c1.4,0,3.1-1.4,2.2-3C561,548.1,560.8,547.7,560.6,547.3z"/>
		<path class="st3" d="M548.1,453.7c-6.3,3.1-11.1,8.7-16.1,13.4c-5.1,4.8-10.3,9.7-14.2,15.6c-0.4,0.6,0.2,1.2,0.8,1
			c6.8-2.2,12.8-6.6,18.2-11.4c5.2-4.7,11-10,13.4-16.7C550.6,454.5,549.4,453.1,548.1,453.7z"/>
		<path class="st3" d="M539.1,414.7c-1.5-0.7-3.1-1.4-4.7-2c-0.9-0.4-1.9-0.5-2.9-0.8c-0.8-0.2-1.6-0.3-2.4-0.4
			c-0.8-0.1-1.6-0.2-2.4-0.3c-0.9-0.1-1.8,0-2.7,0c-1.2,0.1-1.5,1.8-0.6,2.5c0.7,0.5,1.4,1,2.2,1.4c0.4,0.2,0.7,0.4,1.1,0.6
			c0,0,0.3,0.2,0.4,0.2c0.1,0.1,0.3,0.2,0.4,0.2c1.5,0.8,3.2,1.8,4.9,2.3c1.5,0.5,3.1,1.1,4.6,1.6c0.9,0.3,1.8,0.7,2.8,0.8
			c0.4,0.1,0.9,0.1,1.4,0.1c0.5,0,1-0.2,1.5-0.4c0.8-0.3,1.1-1.3,0.8-2.1C542.8,416.6,540.8,415.5,539.1,414.7z"/>
		<path class="st3" d="M526.2,367.8c-1.4,0.6-2.6,1.7-3.9,2.6c-1.6,0.8-2.8,2.2-4.1,3.5c-1.5,1.5-2.9,3.1-4.3,4.7
			c-2.9,3.1-5.3,6.5-8.2,9.5c-1.1,1.1,0.2,2.7,1.6,1.9c3.6-2.3,7.4-4.2,10.7-6.9c1.6-1.3,3.2-2.5,4.6-4c1.5-1.5,3.2-3,4-4.9
			c0.8-1.3,1.8-2.6,2.2-4C529.1,368.6,527.8,367.1,526.2,367.8z"/>
		<path class="st3" d="M593.2,560.9c-0.6-0.6-1.2-1.4-1.9-1.9c-1.2-1-2.5-1.8-3.9-2.6c-2.7-1.5-5.3-3.5-8.4-4
			c-0.2,0-0.4,0.2-0.3,0.5c1.4,2.8,4.2,4.7,6.5,6.7c1.2,1,2.4,2,3.7,2.9c0.7,0.5,1.6,0.8,2.4,1.2c0.7,0.3,1.4,0.7,2.2,0.8
			c0.8,0.1,1.5-0.8,1.2-1.6C594.3,562.1,593.7,561.5,593.2,560.9z"/>
		<path class="st3" d="M596.6,528.8c-0.8,0.1-1.7,0.1-2.5,0.3c-0.9,0.2-1.9,0.5-2.8,0.8c-1.6,0.6-3.1,1.3-4.6,2.2
			c-1.5,0.9-3,1.7-4.4,2.9c-0.6,0.6-1.3,1.1-1.9,1.7c-0.5,0.5-0.6,1.1-1.2,1.5c-0.4,0.3,0,0.9,0.5,0.8c0.6-0.3,1.3-0.1,2-0.2
			c0.8-0.2,1.6-0.4,2.4-0.6c1.6-0.4,3.2-1.1,4.7-1.7c1.5-0.6,3-1.2,4.5-1.9c1.7-0.7,3-1.8,4.6-2.8
			C599.5,530.8,598.2,528.5,596.6,528.8z"/>
		<path class="st2" d="M427,242.9c-3.3-5.7-6.7-11.3-10.4-16.7c-1.8-2.7-3.7-5.6-6.1-7.7c-0.5-0.4-3.4-2.2-4-1.2
			c-0.9,1.6-1,3.1-0.5,4.9c0.9,2.9,2.2,5.7,3.5,8.5c2.4,5.1,4.9,10.1,7.4,15.1c5,10.3,10.2,20.5,15,30.9
			c9.6,20.8,18.4,41.9,26.6,63.3c2.3,6.1,4.5,12.2,6.9,18.2c1.1,2.9,2.2,5.7,3.7,8.4c0.8,1.6,1.7,3.1,2.7,4.6
			c0.9,1.4,2.2,2.3,3.1,3.6c1.3,1.8,4.7,0.9,4.7-1.4c0-1.3,0.4-2.4,0.5-3.7c0.1-1.5-0.1-3.2-0.3-4.7c-0.4-3.2-1.3-6.3-2.3-9.5
			c-1.7-5.6-3.6-11.1-5.6-16.5c-4.1-11.1-8.5-22-13.3-32.7C449.2,284.5,438.9,263.2,427,242.9z"/>
		<path class="st2" d="M480.7,271.6c-2.1-4.5-4.3-8.9-6.9-13.1c-1.2-1.9-2.2-4-3.8-5.6c-1.8-1.7-3.1-2.1-5.5-2
			c-1.2,0.1-2.3,1.5-2.1,2.7c0,0.1,0,0.1-0.1,0.2c-0.1,0.5-0.2,1-0.1,1.5c0,1,0.2,1.8,0.4,2.8c0.6,2.3,1.5,4.6,2.3,6.9
			c1.4,4.2,3.1,8.4,4.7,12.5c1.5,4.2,3,8.4,4.7,12.5c0.9,2.2,2,4.1,3.3,6.1c0.6,0.9,1.1,1.9,1.7,2.8c0.7,1,1.6,1.8,2.4,2.8
			c1.6,2.3,6,1.1,6-1.8c0-1.3,0.3-2.6,0.3-3.9c-0.1-1.3-0.3-2.6-0.4-3.9c-0.2-2.6-0.7-4.9-1.5-7.4
			C484.6,280.3,482.7,276,480.7,271.6z"/>
	</g>
</g>
</svg>
