<?xml version="1.0" encoding="utf-8"?>
<!-- Generator: Adobe Illustrator 26.0.1, SVG Export Plug-In . SVG Version: 6.00 Build 0)  -->
<svg version="1.1" id="Layer_1" xmlns="http://www.w3.org/2000/svg" xmlns:xlink="http://www.w3.org/1999/xlink" x="0px" y="0px"
	 viewBox="0 0 595.3 595.3" style="enable-background:new 0 0 595.3 595.3;" xml:space="preserve">
<style type="text/css">
	.st0{clip-path:url(#SVGID_00000141450747356045458620000012472553792124476824_);}
	.st1{fill:#6BCAD4;}
	.st2{fill:#FFFFFF;}
</style>
<g>
	<defs>
		<rect id="SVGID_1_" x="0" y="0" width="595.3" height="595.3"/>
	</defs>
	<clipPath id="SVGID_00000159455026939632707410000005631831080061898415_">
		<use xlink:href="#SVGID_1_"  style="overflow:visible;"/>
	</clipPath>
	<g style="clip-path:url(#SVGID_00000159455026939632707410000005631831080061898415_);">
		<path class="st1" d="M553.8,150.1c-39.7-3.1-77.6,10.2-113.8,25.5c-35.7,15.1-70.7,32.3-104.7,51.4c-8.1,4.5-16.2,9.2-24.2,14
			c21.1-36.6,32.1-80.2,39.4-123.5c2.8-16.6,5.1-33.3,7.5-50c0.7-4.7-3.7-9.1-7.7-8.4c-20.2,3.5-33.5,21.6-45.6,38.3
			c-11.9,16.5-23.5,33.4-34.9,50.4c-23.1,34.4-45.5,69.5-68,104.4c-22.4,34.7-44.9,69.3-68.5,103C110,388.3,85.9,420.6,59.8,451
			c-26.1,30.4-54.1,58.9-84.4,84.2c-3.9,3.2-7.7,6.4-11.7,9.5c-4.9,3.9-2.4,14.9,4.1,15.1c48,1.7,96.2,3.2,144-1.8
			c66.2-7,124.6-28.8,181.6-65.1c29.5-18.8,57.5-41.3,83.9-65.1c14.7-13.3,29.1-27.1,42.7-41.9c2.3-2.5,3.5-5.7,2.4-9.3
			c-0.9-3-3.6-6.5-6.7-6.5c-29.5,0-58.7,5.2-86.3,15.6c23.4-29.4,53.1-52,82.9-73C448.9,287,487,262.5,518,228.1
			c17.4-19.3,32.1-41.3,42-66.6C561.8,156.9,558.5,150.4,553.8,150.1z"/>
		<path class="st2" d="M136.5,456.3c-3.8-7.5-12-6.3-17.9-2.4c-12,8-23.8,16.4-35.7,24.6c-11.3,7.8-24.6,14.7-32.9,26
			c-0.8,1.1,0.1,2.6,1.4,2.4c14.5-1.9,27.7-11.4,40-18.7c6.5-3.9,12.9-7.9,19.2-12c3-2,6.1-4,9.1-6c0.9-0.6,1.8-1.2,2.7-1.8
			c-0.2,1.2-0.4,2.4-0.6,3.6c-0.8,4.1-1.7,8.1-2.8,12.1c-1.1,3.9-2.5,7.7-3.6,11.6c-1.3,4.6-1,8.4-0.9,13.1c0.1,2.7,3.8,3.8,5.7,2.2
			c2.5-2.1,4.9-3.9,6.7-6.6c1.9-2.9,3.2-6.2,4.2-9.5c2.1-6.5,3.8-13.2,5.1-19.9C137.3,469.3,139.3,461.9,136.5,456.3z"/>
		<path class="st2" d="M256.6,430.8c-2.2-4.7-7.3-7.1-12.2-5.6c-4,1.2-7.1,4.3-10.3,6.8c-6.4,5.1-12.8,10.3-19.1,15.4
			c-3.1,2.5-6.1,4.9-9,7.6c-3.3,3-7.3,5.9-8,10.6c-0.3,2.5,1.6,5,4.1,5.3c4,0.4,7-1.8,10.1-3.9c2.8-1.9,5.6-3.8,8.3-5.9
			c5.3-4.2,10.7-8.3,16-12.5c2.5-2,5.1-3.9,7.6-5.9c0.1-0.1,0.2-0.1,0.3-0.2c0.3,1.3,0.6,2.6,0.7,3.7c0.6,3.7,1.5,7.7,3.8,10.8
			c2.6,3.5,8.3,2.4,9.9-1.5c1.6-4.1,1-8.8,0.3-13C258.5,438.7,258.2,434.3,256.6,430.8z"/>
		<path class="st2" d="M200.2,382.4c-1-3.4-4.5-5.3-7.7-3c-5.5,4.1-11,8.2-16.5,12.4c-2.7,2.1-5.4,4.1-8,6.2c-1.3,1-2.7,2-4,3.1
			c-1.3,1.1-2.3,2.5-3.4,3.8c-0.9,1,0.4,2.1,1.4,1.8c1.6-0.5,3.3-0.9,4.8-1.6c1.5-0.7,2.9-1.7,4.4-2.5c2.9-1.7,5.8-3.3,8.8-5
			c4-2.3,7.9-4.6,11.9-6.9c0.3,2,0.5,4,0.7,6c0.3,4.2,0.3,9.7,4,12.4c1,0.8,2.5,0.7,3.5-0.1c3.9-3,3.3-9.2,2.8-13.5
			C202.2,391.2,201.5,386.7,200.2,382.4z"/>
		<path class="st2" d="M222.4,307.7c-1.3-5.2-3.2-10.3-5.7-15.1c-1.8-3.3-6.5-5.3-9.7-2.4c-4.3,4-8.6,8.1-12.2,12.7
			c-1.7,2.1-3.4,4.2-4.9,6.5c-0.8,1.2-1.4,2.4-2.1,3.7c-0.6,1-1.3,2-1.4,3.2c-0.1,0.8,0,1.6,0,2.4c0.1,2,2.5,3.7,4.4,3.2
			c0.8-0.2,1.6-0.3,2.3-0.7c0.9-0.4,1.5-1.1,2.2-1.7c0.9-0.8,1.8-1.6,2.6-2.5c1.2-1.2,2.4-2.5,3.5-3.7c0,0,0.1-0.1,0.1-0.1
			c0.2-0.2,0.4-0.5,0.7-0.7c0.4-0.4,0.9-0.9,1.3-1.3c1.2-1.2,2.4-2.3,3.5-3.5c0.2-0.2,0.4-0.5,0.7-0.7c0,0,0,0,0,0
			c0.3-0.4,0.7-0.7,1-1.1c0.2,0.5,0.4,1.1,0.6,1.6c0.1,0.2,0.1,0.5,0.2,0.7c0,0.1,0,0.1,0.1,0.3c0.1,0.5,0.3,1,0.4,1.6
			c0.3,1.1,0.5,2.3,0.7,3.4c0.2,1,0.4,1.9,0.7,2.9c0,0.1,0,0.1,0.1,0.2c0,0.1,0,0.1,0.1,0.3c0.6,2.4,1.2,5,2.8,6.6
			c0,0.1,0.1,0.4,0.1,0.4c0.1,0.4,0.4,0.9,0.7,1.2c0.6,0.8,1.7,1.4,2.8,1.3c1,0,1.8-0.4,2.5-1.1c0.4-0.4,0.6-0.8,0.8-1.3
			c0,0,0.1-0.2,0.1-0.3c1.8-1.8,2-5.2,2.1-7.5C223.5,313.2,223.1,310.5,222.4,307.7z"/>
		<path class="st2" d="M294.9,341.6c-0.9-2.9-2.8-5.4-5.4-6.9c-3.5-2-7.3-1.8-11.1-0.6c-3,1-5.8,2.7-8.5,4.2
			c-3.1,1.6-6.2,3.2-9.2,4.9c-3.5,2-7,3.9-10.2,6.2c-1.5,1.1-2.7,2.3-3.4,4c-0.2,0.5-0.6,1.8-0.1,2.3c2.8,2.3,6.6,0.8,9.7-0.1
			c3.4-1,6.8-2.5,10.2-3.8c3.4-1.3,6.6-2.8,10-4.2c1.6-0.7,3.3-1.4,4.9-2.1c0.3-0.1,0.4-0.2,0.5-0.2c0.1,0,0.2,0,0.5,0
			c0,0.1,0.1,0.2,0.1,0.3c0,0.2,0,1.2,0.1,1.5c-0.2,2.6-0.7,5.1-1.4,7.6c-0.1,0.2-0.3,1.2-0.4,1.4c-0.4,1.3-0.7,2.6-1,3.9
			c-0.3,1.5-0.6,2.9-0.9,4.4c-0.2,0.8-0.3,1.6-0.1,2.4c0.6,1.8,0.6,2.2,0.3,1.1c-0.2-0.8-0.3-0.7-0.3,0.2c-0.1,0.5-0.2,1-0.3,1.4
			c-0.3,1.6-0.4,3.1,0.2,4.6c0,0.5,0.1,0.9,0.1,1.4c0.2,2.2,3,3.1,4.7,1.8c0.3-0.3,0.6-0.5,1-0.8c1.2-0.5,2.2-1.5,2.9-2.7
			c0.4-0.6,0.7-1.3,1.1-1.9c0.2-0.4,0.4-0.8,0.7-1.2c0.1-0.1,0.3-0.2,0.5-0.5c1.3-1.4,1.9-3.4,2.6-5.2c0.7-1.9,1.2-3.7,1.7-5.6
			C295.6,353.6,296.8,347.5,294.9,341.6z"/>
		<g>
			<path class="st2" d="M360.9,417.9c-2-7-9.5-8.7-15.9-7.1c-3.9,1-7.7,2.2-11.5,3.5c-3.6,1.3-7.8,2.4-10.3,5.5
				c-0.8,1-0.3,2.5,0.8,3c3.3,1.3,7,0.5,10.4-0.1c3.4-0.6,6.8-1.4,10.1-2.1c1.4-0.3,2.8-0.5,4.2-0.7c0.1,0,0.2,0,0.2,0
				c-0.1,0-0.1,0-0.2,0c0.1,0,0.1,0,0.2,0c0.1,0,0.1,0,0.1,0c0.2,0,0.4,0,0.6,0c0,0,0.4,0.1,0.7,0.1c0.1,0.1,0.4,0.2,0.5,0.2
				c0,0,0,0,0-0.1c0,0,0,0,0,0c0,0,0,0,0,0c0,0,0,0,0,0c0,0,0,0,0,0c0,0,0,0,0,0c0,0.1,0.1,0.1,0.1,0.1c0,0,0,0,0,0c0,0,0,0-0.1-0.1
				c0,0.1,0.1,0.1,0.1,0.1c0,0,0,0,0,0c0,0.1,0,0.1,0,0.2c0,0.1,0,0.1,0,0.1c-0.1,0.6-0.3,1.5-0.3,1.7c-0.1,0.4-0.1,0.7-0.1,1.1
				c0,0.7,0,1,0.4,1.8c1.1,2.6,4.1,3.2,6.5,2.1C361.4,425.8,362,421.5,360.9,417.9z"/>
			<path class="st2" d="M349,419.9c0.1,0,0.2,0,0.2,0C349.1,419.9,349.1,419.9,349,419.9C349,419.9,349,419.9,349,419.9z"/>
			<path class="st2" d="M350.9,420.3C350.9,420.3,350.9,420.3,350.9,420.3C350.9,420.3,351,420.4,350.9,420.3
				C351,420.4,351,420.3,350.9,420.3C350.9,420.3,350.9,420.3,350.9,420.3z"/>
		</g>
		<path class="st2" d="M398,255c-4.7-1.7-9.4,0.7-13.7,2.5c-10.4,4.5-21,8.8-31.3,13.7c-5.1,2.4-10.3,4.8-15.4,7.3
			c-2.7,1.3-5.2,2.8-7.8,4.3c-1,0.6-2.1,1.1-3.1,1.8c-0.5,0.2-0.8,0.5-1.1,1c-0.1,0-0.1,0.1-0.2,0.1c-1.9,0.4-2.7,3.8-0.8,5.5
			c2.8,2.4,6.6,0.8,9.6-0.2c4.5-1.4,9-2.9,13.4-4.6c8.3-3.2,16.6-6.5,24.8-10c4.3-1.8,8.7-3.6,13-5.5c1.5-0.6,2.9-1.2,4.4-1.8
			c-0.1,0.3-0.3,0.6-0.4,0.9c-1.1,2.8-2.1,5.5-3.2,8.3c-2,5.2-3.7,10.6-1.7,16c0.5,1.5,2.7,2.3,4.1,1.6c5.1-2.6,7.5-7.7,9.6-12.8
			c1.9-4.8,4.3-9.7,5.7-14.7C405.4,263.2,403.7,257.1,398,255z"/>
		<path class="st2" d="M473.6,218.4c-2.3-2.6-5.9-3.3-9.2-2.6c-2.8,0.6-5.4,1.9-8,3c-2.6,1.1-5.1,2.2-7.7,3.4
			c-2.8,1.2-5.5,2.4-8.2,4.1c-1.4,0.8-2.6,1.5-3.6,2.8c-1.2,1.6-1.6,3.8-0.3,5.6c2,2.5,5.2,2,7.8,1.4c2.4-0.5,4.7-1.3,6.9-2.2
			c2.7-1,5.4-2,8.2-3c-1.3,3.1-2.4,6.4-1.5,9.4c0,0.2,0,0.3,0,0.5c0.2,3.1,3.8,4.2,6.2,3c3-1,5.2-4.5,6.5-7.2
			c1.2-2.5,2.3-5.1,3.5-7.7C476,225.3,476.3,221.5,473.6,218.4z"/>
		<path class="st2" d="M296.2,268.7c-3.3-4.1-8.5-3-12.4-0.6c-3.9,2.5-7.6,5.3-11.4,8.1c-1.8,1.4-3.6,2.7-5.3,4.2
			c-1.7,1.5-4,3.2-4.8,5.4c-0.4,1.1,0.2,2.4,1.5,2.6c2.1,0.2,3.9-0.8,5.7-1.6c2.1-0.9,4-2,6-3.1c3.7-2.2,7.5-4.3,11.1-6.6
			c0.4-0.3,0.9-0.6,1.3-0.8c0.1-0.1,0.7-0.4,0.8-0.5c0.1-0.1,0.2-0.1,0.3-0.2c0.7,4,0.7,8.1,1.8,12c0.5,1.9,1,4.3,2.3,5.9
			c1.6,2,4.5,1.9,6-0.1c1.3-1.7,1-4.5,1-6.5c0-2.3-0.4-4.4-0.7-6.7C298.9,276.4,298.8,271.8,296.2,268.7z"/>
		<path class="st2" d="M277.4,193.3c-1.7-3.8-6-6.1-10.1-4.4c-3.3,1.4-5.7,4.8-8.1,7.4c-2.4,2.5-4.7,4.9-7.1,7.4
			c-2.4,2.5-4.6,5-6.7,7.7c-1.1,1.3-2.1,2.7-3.1,4.1c-1.1,1.6-1.8,3-2.3,4.8c-0.6,1.8,1,3.2,2.8,2.7c1.6-0.5,2.9-1,4.3-2
			c1.1-0.8,2.2-1.6,3.3-2.4c2.3-1.9,4.6-3.7,6.7-5.8c3.8-3.6,7.5-7.3,11.3-10.9c0.3,1.6,0.5,3.2,0.8,4.9c0.4,2.9,0.8,5.8,1.5,8.6
			c0.7,3,1.8,6.7,4.8,8.1c0.9,0.4,2.3,0.2,3.1-0.5c2.8-2.6,2.4-7.1,2.1-10.5c-0.3-3.3-0.9-6.7-1.4-10
			C278.9,199.4,278.7,196.1,277.4,193.3z"/>
		<path class="st2" d="M317.9,146.7c-0.9-3.7-4.7-5.3-7.9-3.1c-3.9,2.8-7.7,5.8-11.1,9.1c-1.9,1.8-3.6,3.8-5.2,5.9
			c-0.7,0.9-1.5,1.9-2.1,2.9c-0.8,1.1-1.1,2.4-1.5,3.7c-0.7,2.1,1.4,4.9,3.8,3.6c1.1-0.6,2.3-1.1,3.3-2c0.9-0.8,1.7-1.6,2.6-2.4
			c1.7-1.5,3.6-2.9,5.3-4.5c1.5-1.3,3-2.6,4.5-3.8c0.2,2.1,0.4,4.1,0.4,6.2c0,0.3,0,0.6,0,0.9c0,0.1,0,0.1,0,0.2c0,0.6,0,1.3,0,1.9
			c0,1.4,0.1,2.7,0.1,4.1c0.1,2.6,0.7,7,4.3,6.5c3.1-0.4,4.1-4.6,4.6-7.1c0.5-2.3,0.6-4.7,0.6-7.1
			C319.6,156.6,319,151.6,317.9,146.7z"/>
		<path class="st1" d="M438.6,99.2c-2,0.5-3.9,0.7-5.8,1.9c-1.6,1-3.3,2-4.8,3.2c-2.9,2.2-5.6,4.9-8.1,7.6c-1.1,1.2-2.2,2.3-3.3,3.5
			c-0.1,0.1-0.1,0.1-0.2,0.2c0,0,0,0-0.1,0.1c-0.5,0.5-1.1,1-1.6,1.5c-0.8,0.7-2.2,2.1-3.3,2.4c0,0,0,0,0,0c0.3-0.2,0.6-0.4,0.9-0.5
			c-0.3,0.2-0.6,0.3-0.9,0.5c-0.2-0.3-0.4-0.6-0.6-0.8c0,0,0-0.1-0.1-0.1c-0.5-0.9-0.9-1.8-1.3-2.7c-1.2-2.8-3.4-9.1-7.2-8.9
			c-0.7-0.3-1.5-0.5-2.3-0.5c-1.4,0-2.6,1.5-1.5,2.8c0.2,0.3,0.4,0.6,0.5,0.9c-0.1,0.6-0.1,1.2,0,1.8c0,0.5,0.1,1,0.1,1.4
			c0,0.2,0,0.5,0,0.7c0,0,0,0,0,0c0,2.6-0.2,5.2-0.2,7.8c0.2,6.8,5.1,13.6,12.2,14.4c7.9,0.9,14.3-4.2,19.5-9.6
			c3-3.1,5.8-6.1,8.4-9.5c1.1-1.5,2-3.1,3-4.7c0.7-1.2,1.4-2.4,1.8-3.7c0.4-1.3,0.4-2.3,0.6-3.6C445.1,101.9,441.8,98.5,438.6,99.2z
			"/>
	</g>
</g>
</svg>
