<?xml version="1.0" encoding="utf-8"?>
<!-- Generator: Adobe Illustrator 26.0.1, SVG Export Plug-In . SVG Version: 6.00 Build 0)  -->
<svg version="1.1" id="Layer_1" xmlns="http://www.w3.org/2000/svg" xmlns:xlink="http://www.w3.org/1999/xlink" x="0px" y="0px"
	 viewBox="0 0 595.3 595.3" style="enable-background:new 0 0 595.3 595.3;" xml:space="preserve">
<style type="text/css">
	.st0{clip-path:url(#SVGID_00000183951793740457449180000016757845159963582348_);}
	.st1{fill:#17213A;}
	.st2{fill:#E64A2F;}
	.st3{fill:#FFFFFF;}
	.st4{fill:#F3972D;}
</style>
<g>
	<defs>
		<rect id="SVGID_1_" x="0" y="0" width="595.3" height="595.3"/>
	</defs>
	<clipPath id="SVGID_00000141414475247733989930000001147152148362793113_">
		<use xlink:href="#SVGID_1_"  style="overflow:visible;"/>
	</clipPath>
	<g style="clip-path:url(#SVGID_00000141414475247733989930000001147152148362793113_);">
		<path class="st1" d="M537.6,380.5c-0.6-8.8-1.7-17.5-2.8-26.2c-4.2-31.6-12.7-63.3-28.7-90.8c-31.7-54.5-89.3-85.3-145-106.2
			c-58.4-21.9-120.8-32.4-182.8-31.3c-62,1.1-124.1,12.8-181.9,36.3c-57,23.2-112.4,57.6-146,112.6c-16.4,26.9-26.9,58.1-28.4,90.1
			c-0.8,16.7-0.3,35.8,10.7,49.1c13.5,16.3,33.9,13.9,52.4,14.2c38.8,0.7,77.2,6.4,116,7.1c9.2,0.1,18.4,0,27-4
			c6.7-3.1,12.1-8.2,16.5-14.1c9-12,16.5-25.4,25.1-37.7c4.5-6.5,6.7-9.5,11.4-15.5c4.5-5.7,9.2-11.3,14-16.6
			c4.8-5.3,9.9-10.4,15.1-15.2c2.5-2.3,5.1-4.6,7.8-6.8c0.1-0.1,0.5-0.4,0.8-0.6c0.5-0.4,1.1-0.9,1.7-1.3c1.5-1.2,3.1-2.3,4.6-3.4
			c5.7-4.1,11.6-7.8,17.7-11.1c2.8-1.5,5.6-2.9,8.5-4.2c0.1,0,0.1-0.1,0.2-0.1c0.1,0,0.1-0.1,0.3-0.1c0.8-0.3,1.6-0.7,2.4-1
			c1.8-0.7,3.6-1.4,5.4-2c15.2-5.4,28-7.3,43.7-7.3c15.6,0.1,28.3,2.1,43.6,6.7c15.1,4.5,27.2,9.9,40.9,17.9c6.6,3.8,13,8,19.2,12.4
			c6.3,4.5,10.8,8,16.1,12.6c11.7,10,22.7,20.9,33.2,32.3c10.4,11.4,19.5,25.4,32.6,33.5c7.2,4.4,15.4,6.7,23.6,8.3
			c8.8,1.7,18.5,3.2,26.7,4.4c16.5,2.3,35.1,3.6,52.5,3.8c8.6,0.1,17.6,0.6,26.1-1.1c9.7-1.9,17.5-9.7,19.6-19.8
			C539.2,397.1,538.1,388.6,537.6,380.5z"/>
		<path class="st2" d="M528.6,406.6c-9.5-28.2,5.1-61.9-16.9-85.9c-8.9-9.7-21.5-14.8-30.5-24.2c-11.1-11.5-3.1-29.5-8.3-43.4
			c-5.5-14.8-18.3-24.7-32.4-30.7c-15.3-6.5-31.9-7.9-47.8-12.3c-7.6-2.1-15-5-21.2-9.9c-6.3-5.1-11.4-11.6-16.7-17.7
			c-11.2-12.9-24.4-22.6-41.5-25.6c-17.8-3.2-35.5-0.7-53,3c-18.6,3.9-37.5,9-56.7,6.1c-18.1-2.7-35.3-8.8-53.7-9.3
			c-17-0.4-34.4,2.6-50.2,8.8c-16.2,6.4-30.3,15.7-43.2,27.3c-12.7,11.5-24.4,21.6-41.2,26.5c-16.3,4.8-33.4,6.4-49.4,12.2
			c-15.4,5.6-29.1,14.7-39.3,27.6c-10.1,12.7-16.6,27.2-18.6,43.3c-1,8.1,0,16.6-2.4,24.5c-2,6.7-8,10.9-13.4,14.9
			c-13,9.4-22.9,19.6-26.9,35.6c-3.6,14.5-2.9,29.3-4.7,44c-0.9,6.9-1.4,14-2.9,20.8c-0.8,3.4,3.4,6.1,6,3.5
			c5.1-5.1,8.7-10.8,10.9-17.7c2.1-6.7,3-14.1,3.9-21.1c1.7-13,2-27.8,10.2-38.8c8.5-11.5,23.2-16.1,30.8-28.7
			c8.4-14,5-31.7,10.3-46.8c4.6-13,13-25,24.3-33.2c12.8-9.3,28.2-12.7,43.5-15.9c16.4-3.4,33.2-6.9,47.6-16
			c14.2-9.1,24.9-22.4,38.7-31.9c27.1-18.6,59.7-23.6,91.4-16.4c18.7,4.2,36.4,8.1,55.7,5.6c18.3-2.3,36.1-8.1,54.4-9.8
			c14.9-1.4,31.3-0.5,43.6,8.9c12.7,9.6,20.5,24.2,33.6,33.6c13.8,10,31.1,12.8,47.4,16.1c13.6,2.7,28.2,6.2,38.4,16.2
			c4.4,4.3,7.3,9.6,7.8,15.8c0.8,9-0.9,17.9,1.3,26.8c3.5,14,15.1,22.7,26.4,30.4c10.7,7.4,19.7,14.4,21.5,28.1
			c1.9,14.6-1.3,29.4,1.2,43.9c1.3,7.7,4.6,13.6,10.1,19.1C521.4,418.6,531,413.7,528.6,406.6z"/>
		<path class="st3" d="M430.5,343.1c-8.9-4.9-21.4-8-27.5-16.7c-3.5-5-3.5-11.4-3.9-17.3c-0.4-6.6-1.3-13-3.6-19.2
			c-7.9-21.1-27.1-38.1-49.6-41.9c-14.3-2.4-27.7,2.1-41.9,2.7c-13.3,0.6-26-3.5-38.2-8.4c-12.8-5.1-25.1-11.3-38.2-15.6
			c-13.3-4.4-27.6-6.6-41.6-6.3c-13.8,0.3-27.7,2.7-40.7,7.6c-13.5,5-25.5,12.9-38.4,19.1c-21.3,10.2-45.5,10.1-67.9,16.4
			c-10.7,3-20.9,7.6-29.5,14.9c-9,7.8-14.5,18.4-19.1,29.1c-5.2,12.2-9.9,25.4-21.5,33.1c-6.4,4.3-13.3,7.4-19.6,11.9
			c-5.7,4.1-11.1,8.6-15.8,13.8c-18.4,20-30.6,49.5-23.9,76.8c1.5,6.3,10,4.3,10.6-1.4c2.5-22.7,8.6-44.9,23.9-62.5
			c8.1-9.3,17.7-15.3,28.2-21.6c10.8-6.4,19-14.6,24.7-25.8c5.1-10.1,8.3-21,14.1-30.8c5.3-9,13.1-15.4,22.7-19.5
			c19.8-8.3,42.1-8.4,62.6-14.4c12.3-3.6,23.4-9.8,34.5-16c11.6-6.4,23.4-11.6,36.4-14.4c26.8-5.6,51.8,0.3,76.4,10.9
			c11.7,5,23.3,10.3,35.6,13.6c13.1,3.4,25.7,3.4,38.9,1.3c12.3-1.9,23.8-3.2,35.6,1.7c9.7,4.1,18.3,11.3,24,20.1
			c3.2,4.9,5.5,10.1,6.8,15.8c1.5,6.6,1.1,13.5,2.2,20.2c2.2,13.5,11.4,21.8,23.2,27.7c11,5.5,21.7,10,29.5,20
			c8,10.3,11.7,23.1,11,36c-0.5,8.8,13.3,8.8,13.7,0C465.4,379.3,452,355,430.5,343.1z"/>
		<path class="st4" d="M396,385c-2.7-8-5.8-15.9-9.9-23.2c-3.9-7.1-8.8-13.9-14.8-19.4c-6.8-6.3-14.7-9.9-22.5-14.5
			c-8.5-5-12-13.1-17.4-20.8c-5.3-7.5-11.7-13.9-19.4-18.9c-16.4-10.9-36.4-13.2-55.6-13.3c-22.1-0.2-44.3,0.4-66.4,0.7
			c-11.1,0.1-22.3,0.3-33.4,0.4c-10,0.1-20.5,0.4-30,3.8c-17.6,6.4-26.4,24.1-42.5,32.8c-8.7,4.6-18,7.7-26.7,12.3
			c-7.6,4-14.7,9.2-20.9,15.1c-14.2,13.4-24.6,31.4-28.4,50.5c-2.2,11.2-2.9,22.8-6.4,33.7c-2.7,8.3-8.9,19.3-17.8,21.6
			c-2.8,0.7-2.3,5.5,0.7,5.2c7.4-0.8,13.8-2.7,19.6-7.6c6.4-5.4,10.6-13.7,12.9-21.7c2.8-9.5,3.4-19.6,5.7-29.2
			c1.9-8.1,4.8-15.7,8.9-22.9c8.4-14.7,21-26.3,36.2-33.8c8.2-4,17-7.1,24.9-11.6c7.8-4.4,14-10.4,20.1-16.8
			c6.1-6.4,12.1-12.4,20.9-14.8c9.4-2.6,19.4-2.1,29.1-2.2c21.9-0.3,43.8-0.5,65.7-0.8c19.4-0.2,39.9-2,58.8,3.3
			c8.9,2.5,17.1,6.9,23.9,13.2c6.7,6.2,10.5,14,15.7,21.3c6.2,8.7,14.5,13,23.6,18.1c7.5,4.2,13.8,9.9,18.7,17.1
			c5.1,7.5,8.7,15.7,11.7,24.2c3.1,9,4.7,18.5,9.5,26.8c3,5.1,10.7,2.7,10.9-2.9C401.7,401.6,398.8,393.3,396,385z"/>
		<g>
			<path class="st4" d="M206.5,349.6c-0.1,0.1-0.1,0.1-0.2,0.2C206.3,349.9,206.3,349.9,206.5,349.6z"/>
			<path class="st4" d="M209.2,340c-1.3-1-2.4-1.7-4-1.8c-1.1-0.1-1.3,0.1-2,0c-0.1,0-0.9-0.1-1.4-0.1c-0.9-0.1-1.8-0.3-2.7-0.3
				c-1.5,0-3.2,0.3-4.6,0.6c-5,1-9.8,3.1-14.4,5.2c-4.2,2-8.4,4.2-12.1,7c-3.6,2.8-9.3,7.2-9.5,12.2c-0.8,2.7,0.8,5.7,3.7,6.2
				c4,1.9,9.4-0.2,13.3-1.5c4.1-1.3,8.2-3.4,12.1-5.4c3.5-1.8,6.8-3.5,10.2-5.5c2.1-1.2,4-2.4,5.9-4c1.1-0.9,1.9-1.8,2.8-2.9
				c0.2-0.2,0.5-0.6,0.9-1.1c1.4-1.1,2.8-2.3,3.1-4.2C210.6,342.9,210.5,341,209.2,340z"/>
		</g>
		<path class="st4" d="M266.4,355c-3.2-1.4-5.6-1.8-8.8-1.1c-7.7,0-14.8,4.8-21.4,8.4c-6.6,3.6-12.9,7.8-19.2,11.9
			c-6.3,4.1-12.7,8.2-18.7,12.7c-2.9,2.2-5.9,4.6-8.7,7c-1.5,1.3-3.1,2.9-4.4,4.4c-1.3,1.5-2.4,3.6-3.9,4.8
			c-0.9,0.7,0.1,2.2,1.1,1.9c1.9-0.6,4.3-0.4,6.3-0.7c1.8-0.3,3.6-0.8,5.4-1.3c3.7-1,7.6-2.4,11.2-3.7c7.2-2.6,14.2-6,21.1-9.2
			c6.9-3.1,13.8-6.2,20.4-9.8c6.4-3.6,13.6-6.8,17.7-12.8c2.3-2.2,3.5-4.3,4-7.4C268.7,358.2,268.3,355.8,266.4,355z"/>
	</g>
</g>
</svg>
