<?xml version="1.0" encoding="utf-8"?>
<!-- Generator: Adobe Illustrator 26.0.1, SVG Export Plug-In . SVG Version: 6.00 Build 0)  -->
<svg version="1.1" id="Layer_1" xmlns="http://www.w3.org/2000/svg" xmlns:xlink="http://www.w3.org/1999/xlink" x="0px" y="0px"
	 viewBox="0 0 595.3 595.3" style="enable-background:new 0 0 595.3 595.3;" xml:space="preserve">
<style type="text/css">
	.st0{clip-path:url(#SVGID_00000052098174685914654610000003140931063174872743_);}
	.st1{fill:#0BCAD3;}
	.st2{fill:#FFFFFF;}
	.st3{fill:#FF066C;}
	.st4{fill:#FF8710;}
</style>
<g>
	<defs>
		<rect id="SVGID_1_" x="0" y="0" width="595.3" height="595.3"/>
	</defs>
	<clipPath id="SVGID_00000130644887385000855340000007873943978102350977_">
		<use xlink:href="#SVGID_1_"  style="overflow:visible;"/>
	</clipPath>
	<g style="clip-path:url(#SVGID_00000130644887385000855340000007873943978102350977_);">
		<path class="st1" d="M482.6,511.7c4.2-16.4,3.3-33.1,1.7-49.1c-1.6-16.8-4.8-33.3-9.5-49.2c-10.4-34.4-23.7-69-38.5-101.2
			C411,257.1,377,206.9,336,163.5C295.2,120.3,247.3,83.9,194,56.4c-27.6-14.2-56.7-26.3-87-35.1C75.3,12,41.7,6.5,7.4,8.4
			c-31.7,1.7-63.9,9.7-93.3,25.5c-30.4,16.3-59.1,42.6-67.3,76.7c-6.8,28,0.3,56.5,14.9,78.2c17.5,26.1,46.1,41.9,76.2,51.2
			c33.7,10.3,69.8,12.6,105.4,15.9c34.7,3.2,68.6,8.5,100.8,20c60.9,21.8,113.3,60.8,153.1,110.2c10.1,12.5,19.3,25.7,27.7,39.5
			c8.6,14.2,16,29.1,23.7,43.8c15,28.6,32.3,59.4,62.7,73.4c12.7,5.9,28.6,9.7,43.4,4C469.8,541.1,478.8,526.6,482.6,511.7z"/>
		<path class="st2" d="M450.8,412.8c-3.5-26.3-11.6-51.5-22.5-75.6c-11-24.1-24.8-46.8-39.7-68.7c-16.3-23.9-33.5-47.4-51.7-69.9
			c-18.9-23.5-39.4-45.8-62.5-65.2c-21.1-17.7-44-33.2-68.1-46.4C158.2,60.6,105.4,42.5,51.8,31.7c-26-5.3-54.5-11.5-80.1-1.4
			C-41.2,35.3-53,42.9-64.5,50.5c-11.1,7.4-22.1,15.4-31.4,25.1c-18.5,19.4-15.9,50.4-7.6,73.8c10.3,29.2,37.1,44.1,65.4,52.6
			c26.5,8,54.6,11.5,82,14.7c27.5,3.2,55,6.2,82,12.4c26.2,6,51.4,15.5,75,28.2c46.8,25.1,87.1,62.3,115.3,107.4
			c15.3,24.6,26.5,51.8,44.3,74.9c14,18.2,35.2,38.7,60.4,34.9C450.1,470.1,453.9,436.5,450.8,412.8z M413.3,459.3
			c-9.1-0.7-17.8-5.9-24.6-11.7c-20.8-17.9-33.2-43.6-46-67.3c-12.5-23.1-26.8-44.9-44.2-64.7c-16.9-19.3-36.2-36.3-57.2-51.1
			c-42.8-30.2-91.7-48-143.3-56c-26.1-4-52.5-6.4-78.7-9.9c-25.4-3.4-52.3-7.3-75.8-18.1c-20.5-9.4-39.5-25.9-40.6-50
			c-1.8-41,43-79.6,79.3-89.8c12-3.4,24.7-3,36.9-1.3c51.2,6.9,102.3,21.7,149.1,43.6c48,22.5,92,53,128.6,91.6
			c20.2,21.3,38.2,44.4,55.5,68c15.1,20.6,29.8,41.4,43,63.3c12.9,21.4,24.3,43.7,32.1,67.5c3.9,11.7,6.9,23.7,8.8,35.9
			c1.8,11.6,2.7,24.1-1.4,35.3C431.3,453.9,423.3,460.1,413.3,459.3z"/>
		<path class="st3" d="M363.9,334.6c8.3-13.9,1.4-33.8-5.5-46.8c-7.8-14.7-19.1-27.5-29.9-40.1C281,192.1,227.1,140.3,163,104.2
			c-31-17.5-64.9-32-99.9-39.1C32,58.7-4,60.8-27.5,84.4c-0.7,0-1.3,0.1-2,0.6c-6.3,4.8-10.2,10.8-11.9,18.6c-0.2,1-0.4,2-0.5,3
			c-0.4,1-0.8,2-1.1,3.1c-0.8,2.4-0.2,4.3,1.1,5.7c0.4,3.6,1.2,7.3,2.5,10.6c6.4,17.4,22.1,28.6,39.3,33.9
			c17.8,5.5,36.9,4.5,55.3,3.9c17.8-0.6,35.6-0.1,53.2,2.2c36,4.5,73,14.1,105.1,31.5c16.5,8.9,30.6,20.7,42.7,35
			c11.8,13.9,21.6,29.5,31.6,44.7c10.3,15.7,20.8,31.4,33.2,45.6c5.7,6.5,12.1,14.1,19.7,18.4C349.2,345.8,358.9,342.8,363.9,334.6z
			 M338.8,317.2c-11.8-12.3-21.6-26.3-30.9-40.5c-19-28.8-37-59.8-65-80.9c-28.1-21.2-63.2-33.3-97.2-41c-33.4-7.6-67-9.3-101.2-8.2
			c-16.5,0.5-33.4,0.9-48.8-6c-13.2-5.9-24.2-16.7-24.3-32c0-0.1,0-0.1,0-0.2c12.1-27.6,46.1-36,73.9-33.3
			c16.1,1.6,31.9,6.2,47.2,11.4c15.9,5.4,31.3,12,46.3,19.6c60.7,30.7,112.5,76.5,158.1,126.5c11.3,12.4,22.4,25.1,33,38.2
			c9,11.1,17.8,23.2,21.3,37.2c1.3,5.2,3.4,14.2-0.1,18.9c-0.2,0.2-0.3,0.4-0.4,0.4c-0.9-0.2-2.5-1.3-3-1.7
			C344.4,323.4,341.5,320.1,338.8,317.2z"/>
		<path class="st4" d="M97.3,122.6c0.9-2.3,1.1-4.9,0.3-7.3c-1-3.4-3.3-5.5-6.1-7.5c-2.8-2-6.2-3-9.5-4.1
			c-5.4-1.8-11.5-1.9-17.2-2.5c-5-0.5-10.1-0.9-15.2-1.1c-5.7-0.2-11.5-0.2-17.2-0.1c-2.7,0-5.4,0-8.1,0.2c-2,0.1-4.8,0.6-7,1.1
			c-3.1,0.8-5.3,2.5-7.8,4.5c-2.9,2.3-3.8,6.9-3.3,10.4c0.6,4.2,2.8,6.8,6.2,9.1c5.4,3.7,13.1,3,19.3,3.1c5.1,0.1,10.1,0.3,15.2,0.6
			c5.1,0.3,10.1,0.7,15.2,1.1c2.4,0.2,4.7,0.4,7.1,0.6c0.5,0.1,1,0.1,1.5,0.2c0.2,0,0.8,0.1,1.2,0.1c1.6,0.2,3.2,0.5,4.8,0.5
			C84.4,131.6,94.1,130.7,97.3,122.6z"/>
	</g>
</g>
</svg>
