<?xml version="1.0" encoding="utf-8"?>
<!-- Generator: Adobe Illustrator 26.0.1, SVG Export Plug-In . SVG Version: 6.00 Build 0)  -->
<svg version="1.1" id="Layer_1" xmlns="http://www.w3.org/2000/svg" xmlns:xlink="http://www.w3.org/1999/xlink" x="0px" y="0px"
	 viewBox="0 0 595.3 595.3" style="enable-background:new 0 0 595.3 595.3;" xml:space="preserve">
<style type="text/css">
	.st0{clip-path:url(#SVGID_00000043451963330684104850000015636134037325389228_);}
	.st1{fill:#FF2E12;}
	.st2{fill:#17213A;}
</style>
<g>
	<defs>
		<rect id="SVGID_1_" x="0" y="0" width="595.3" height="595.3"/>
	</defs>
	<clipPath id="SVGID_00000050631058777226810180000017420145366887251588_">
		<use xlink:href="#SVGID_1_"  style="overflow:visible;"/>
	</clipPath>
	<g style="clip-path:url(#SVGID_00000050631058777226810180000017420145366887251588_);">
		<path class="st1" d="M534.7,333.1c-7.7-14.1-17.7-26.3-27.1-39c-8.3-11.3-16.8-23.5-20.9-37.6c-4.7-16.4-0.8-32.3,1.3-48.8
			c2-16.2,0.7-32.5-4.6-47.9c-10.5-30.1-32.2-53.1-58.1-66.5c-13.2-6.8-27.1-11.7-41.4-14.9c-14.3-3.2-29.4-4.9-42-13.8
			C330.5,56.5,322,44.3,312,34.3c-10.7-10.6-23-18.4-36.9-22.3c-26.3-7.4-53.5-0.6-75.1,17.7c-12.8,10.9-23.8,24.4-35.7,36.5
			c-4.6-0.2-9.3-0.1-13.9,0.6c-7.8,1.2-15.5,2.9-23,5.5c-13.8,4.7-27.9,11.3-39,21.9c-22.8,21.6-18.6,56.6-7.3,83.9
			c11.5,27.8,33.9,51.6,37.6,83c3.7,31.6-15.9,59.3-32.3,82.4c-18.1,25.5-38,55-37.1,89.4c0.9,33.9,23.2,57.4,49.5,69.5
			c14.5,6.6,30.3,8.9,45.7,11.1c15.7,2.3,31.3,4.8,46.5,9.7c29.8,9.5,57.7,25,86.9,36.5c49.7,19.6,114.1,25.8,152.3-23.4
			c17.6-22.6,27.5-51.7,48.6-70.9c16.8-15.3,39.4-26.2,54.1-45.6c8.4-11.1,13.7-24.2,14.5-38.9C548.4,364,542.5,347.3,534.7,333.1z"
			/>
		<path class="st2" d="M519.3,334.7c-6.3-1.7-12.7-1.3-19.2-1.5c-6.7-0.1-13.4-0.3-20-0.6c-0.2-4.3-0.4-8.5-0.6-12.8
			c-1-21.2-1.8-42.4-3.3-63.5c-0.3-3.8-0.5-7.6-0.8-11.4c3,0,5.9-0.4,8.6-2.1c1.9-1.3,2.6-4.1,0.8-5.8c-3.2-3-6.4-3.6-10.2-3.9
			c-1.1-13.1-2.8-26-6.6-38.6c-0.5-1.5-2.7-1.6-3.1,0c-3,12.2-4.1,24.8-4.6,37.4c-2.3-0.2-4.6-0.4-6.9-0.6c-11.6-1-23.3-2-34.9-3
			l-25.8-2.2c-0.4-10.8-0.7-21.6-1-32.4c-0.6-19.1-0.5-38.2-0.6-57.4c2.1,0.1,4.2,0.2,6.2,0.3c12.7,0.6,25.7,2.3,38.3,0.3
			c4.9-0.8,4.3-8.2,0-9.3c-10.7-2.9-22.1-2.6-33.1-3.1c-3.8-0.2-7.6-0.3-11.5-0.5c-0.1-11.7-0.3-23.3-0.8-35c0-1-1.4-1.2-1.7-0.2
			c-3.7,11.4-6.4,23-8.6,34.7c-3.8-0.2-7.6-0.3-11.3-0.5c-22.3-0.9-44.5-1.6-66.8-2.2c-6.2-0.2-12.4-0.3-18.6-0.5
			c0-16-0.3-32-0.9-48c1.7,0,3.3,0,5-0.1c5.4-0.1,10.9-0.2,16.3-0.3c4.9-0.1,10.9,0.7,15.2-2.2c1.1-0.7,1.3-2.5,0-3.2
			c-4.3-2.4-9.5-1.5-14.2-1.3c-5.4,0.2-10.9,0.4-16.3,0.5c-2.1,0.1-4.1,0.1-6.2,0.2c-0.4-10.9-0.9-21.8-1.6-32.6
			c0-0.5-0.7-0.5-0.8,0c-1.2,10.9-2.3,21.8-3.3,32.8c-7.6,0.2-15.2,0.4-22.7,0.6c-22.8,0.8-45.6,1.5-68.4,2.7c-0.2,0-0.2,0.3,0,0.3
			c22.8,1.7,45.5,2.4,68.4,2.7c7.4,0.1,14.8,0,22.2-0.1c-1.4,15.9-2.6,31.7-3.7,47.6c-35-0.8-70-1.4-105-1.2c-2.5,0-5,0-7.5,0.1
			c-0.3-7.8-0.6-15.7-1-23.5c0-0.5-0.8-0.5-0.8,0c-0.8,7.8-1.5,15.7-2.1,23.5c-8.5,0-17,0.1-25.6,0.2c-12.5,0.2-25.3,0-37.3,3.8
			c-0.8,0.3-0.8,1.4,0,1.7c10.4,3.3,21.2,3.3,32.1,3.7c10,0.4,20,0.5,30,0.6c-1.8,25.8-2.8,51.6-3.8,77.5
			c-6.9-0.3-13.8-0.1-20.4,1.3c-0.5,0.1-0.4,0.8,0,0.9c6.3,2.6,13.2,3.9,20.1,4.9c-0.5,12.7-1,25.5-1.6,38.2
			c-0.9,18.1-1.9,36.3-2.9,54.4c-1.4-0.1-2.9-0.3-4.3-0.4c-3.3-0.2-6.7-0.6-10.1-0.6c-4.1-0.1-8.1,0.9-12.1,1.3
			c-1.2,0.1-1.4,1.6-0.3,2.1c6.2,2.6,11.6,4.9,18.2,6.4c2.6,0.6,5.3,1.1,7.9,1.7c-1.7,27.7-3.7,55.4-6.3,83c-6-0.6-12-1.2-18-1.7
			c-6.8-0.6-13.6-1.2-20.4-1.7c-6.9-0.5-14.1-1.4-20.6,1.1c-0.7,0.3-0.9,1.2-0.2,1.6c4.8,3.4,10,4.2,15.6,5.3
			c6.7,1.3,13.4,2.3,20.2,3.3c7.4,1.2,14.9,2.2,22.4,3.2c-2.5,25.3-5.7,50.5-8.2,75.8c-4-0.5-8.1-0.9-11.9,0.3
			c-0.6,0.2-0.9,1-0.4,1.5c3,3,7.2,4.9,11.5,6.3c0,0.3-0.1,0.7-0.1,1c-0.9,9.6,12.3,10.8,16.1,3.6c8,2.3,16.3,4,24.4,6
			c19.2,4.6,38.6,8.1,58.1,11.2c4.6,0.7,9.2,1.3,13.8,2c-0.4,5.4-0.7,10.8-0.7,16.2c0,5.6,4.4,10.5,9.9,11.2
			c5.1,0.6,11.5-2.5,12.5-8.2c0.9-5.3,1.5-10.7,2-16.1c26.4,3.2,52.9,5.4,79.4,6.8c3.7,0.2,7.3,0.3,11,0.4
			c-0.3,3.6-0.5,7.3-0.8,10.9c-0.6,8.9-1.8,17.8-1.4,26.7c0.3,6.6,4.9,12.4,11.6,13.2c6.2,0.7,13.4-3,14.7-9.6
			c2.6-13.1,3.1-26.7,3.9-40.1c9.1,0.5,18.6,1,27-1.4c6.5-1.9,6.6-11.4,0-13.2c-8.2-2.3-17.3-1.7-25.9-1.6c1-13.2,1.9-26.4,2.9-39.7
			c0.9-12.1,1.8-24.1,2.7-36.2c11.2,1,22.4,2,33.6,2.9c6.9,0.6,13.7,1.4,20.5,2.3c6.5,0.8,13.2,2,19.8,2.2c0.6,0.5,1.2,0.9,1.9,1.3
			c2.7,1.6,6.2,1.6,9,0c10.6-6.3,7.7-21.8,7.5-32.3c-0.1-10.2-0.3-20.5-0.4-30.7c-0.2-11.7-0.6-23.4-1.2-35.2
			c5.4,0.2,10.8,0.4,16.3,0.5c7.5,0.2,14.9,1.1,22.2-0.6C526.2,346.7,525.8,336.5,519.3,334.7z M245.4,479.2
			c-0.7,7.9-1.6,15.9-2.5,23.9c-20.7-2.7-41.4-5.6-62.1-8.7c-11-1.6-21.9-3.4-32.8-5.4c-0.4-0.1-0.9-0.1-1.3-0.2
			c1.8-23.6,4.4-47.1,6.4-70.7c0.2-1.8,0.3-3.7,0.4-5.5c24.9,3.3,49.9,6.3,74.9,9.1c7.4,0.8,14.7,1.5,22.1,2.3
			C248.7,442.4,247,460.8,245.4,479.2z M251.8,410.6c-29.2-2.9-58.5-5.9-87.7-8.7c-3.2-0.3-6.5-0.6-9.7-1
			c1.5-20.4,2.8-40.9,3.8-61.4c0.3-6.9,0.6-13.8,0.8-20.7c12.5,2.1,25.1,4,37.7,5.7c20.5,2.8,41,5.5,61.6,7.8
			C256.3,358.5,254.2,384.5,251.8,410.6z M265.1,228.6c-1.9,29.8-3.8,59.6-5.9,89.5c-17.3-1.7-34.5-3.5-51.8-5.4
			c-14.5-1.6-29-3.3-43.5-4.9c-1.6-0.2-3.2-0.3-4.7-0.5c0.8-30.9,1-61.8,1-92.8c1.1,0.1,2.2,0.2,3.3,0.4c11.6,1.3,23.3,2.4,34.9,3.7
			c22.3,2.3,44.6,4.5,66.9,6.6C265.3,226.3,265.2,227.4,265.1,228.6z M207.7,210.4l-39.1-2.9c-2.8-0.2-5.6-0.4-8.5-0.7
			c0-7.9,0-15.8,0-23.8c0-18.1-0.1-36.1-0.5-54.2c22,0.5,43.9,1,65.9,1.5c15.2,0.3,30.4,0.8,45.6,1.3c-1.8,27.8-3.4,55.6-5.1,83.5
			C246.5,213.5,227.1,211.9,207.7,210.4z M360.8,459.5c-1.4,17.8-2.8,35.5-4.2,53.3c-1.4-0.1-2.8-0.1-4.1-0.1
			c-19.1-0.8-38.1-2-57.1-3.7c-9.7-0.9-19.4-1.9-29.1-3c0.4-6.2,0.8-12.4,1.2-18.6c1.2-16.4,2.4-32.8,3.2-49.3c0.2-4,0.4-8,0.6-11.9
			c30.4,3.2,60.9,6.2,91.3,9C362.1,443.3,361.5,451.4,360.8,459.5z M367.2,365.8c-0.8,18.4-2,36.7-3.4,55.1
			c-15.8-1.4-31.7-2.7-47.5-4.1c-14.7-1.3-29.5-2.7-44.2-4.2c1.3-24.3,2.6-48.7,3.8-73c0.1-1.8,0.2-3.5,0.3-5.3
			c30.6,3.1,61.2,5.7,91.9,7.9C367.8,350,367.5,357.9,367.2,365.8z M369.4,272.6c-0.2,18.2-0.4,36.4-0.9,54.6
			c-1.9-0.1-3.9-0.2-5.8-0.4c-28.6-2-57.2-4.4-85.8-7.1c1.5-31,2.8-62.1,3.9-93.1c29.8,2.8,59.6,5.6,89.4,8.4
			C369.8,247.5,369.5,260,369.4,272.6z M373,179.5c-1.2,14.9-2,29.8-2.6,44.7l-22-1.9c-22.5-1.9-44.9-3.9-67.4-5.9
			c0.8-24,1.4-48.1,1.8-72.1c0.1-4.1,0-8.2,0.1-12.2c25.7,0.9,51.5,1.8,77.2,2.9c5.8,0.2,11.7,0.5,17.5,0.8
			C375.6,150.2,374.2,164.8,373,179.5z M407.1,238.4c13,1.2,26,2.4,39.1,3.7c4.6,0.4,9.2,0.9,13.8,1.3c-0.1,4.3-0.2,8.6-0.3,13
			c-0.5,21.2-0.5,42.4-0.8,63.5c-0.1,4-0.1,8-0.2,12c-5.9-0.2-11.7-0.4-17.6-0.7c-15.4-0.7-30.8-1.5-46.2-2.4
			c0-30.6-0.9-61.2-1.9-91.7C397.7,237.6,402.4,238,407.1,238.4z M429.9,426.3c-12.6-0.8-25.3-2-37.9-3c-0.3,0-0.5,0-0.8-0.1
			c1-14.4,1.9-28.9,2.6-43.3c0.5-12,0.8-23.9,0.9-35.9c11.7,0.7,23.4,1.4,35.1,2c9.5,0.5,19,0.9,28.5,1.3c-0.2,12-0.4,24.1-0.4,36.1
			c0,10.2,0.1,20.5,0.1,30.7c0,3.8-0.4,8.4-0.3,12.9C448.5,426.5,439.1,426.9,429.9,426.3z"/>
	</g>
</g>
</svg>
