<?xml version="1.0" encoding="utf-8"?>
<!-- Generator: Adobe Illustrator 26.0.1, SVG Export Plug-In . SVG Version: 6.00 Build 0)  -->
<svg version="1.1" id="Layer_1" xmlns="http://www.w3.org/2000/svg" xmlns:xlink="http://www.w3.org/1999/xlink" x="0px" y="0px"
	 viewBox="0 0 595.3 595.3" style="enable-background:new 0 0 595.3 595.3;" xml:space="preserve">
<style type="text/css">
	.st0{clip-path:url(#SVGID_00000158710967941349303610000002278148742008711611_);}
	.st1{fill:#24FF8C;}
	.st2{fill:#17213A;}
	.st3{fill:#FFFFFF;}
</style>
<g>
	<defs>
		<rect id="SVGID_1_" x="0" y="0" width="595.3" height="595.3"/>
	</defs>
	<clipPath id="SVGID_00000069379939742026882190000004854915892948315308_">
		<use xlink:href="#SVGID_1_"  style="overflow:visible;"/>
	</clipPath>
	<g style="clip-path:url(#SVGID_00000069379939742026882190000004854915892948315308_);">
		<path class="st1" d="M557,236.2c-3.4,15-10.7,29.8-24.4,37.8c-17.6,10.3-37.5,4-55.1-2.4c-17.8-6.6-35.7-13.1-53.5-19.7
			c-8.5-3.1-16.9-6.2-25.4-9.4c-8.3-3-17-7.2-25.7-8.6c-3.3-0.5-5.7,0.2-8.8,0.6c-0.1,0-0.2,0-0.3,0.1c-0.8,0.4-1.5,0.8-2.3,1.2
			c-0.2,0.1-0.5,0.3-0.8,0.5c-0.1,0.1-0.2,0.2-0.3,0.2c-0.4,0.3-0.7,0.6-1,1c-0.6,0.6-1.2,1.3-1.7,1.9c-0.4,0.6-0.8,1.2-1.2,1.9
			c-1,1.8-2,3.6-3,5.5c-0.2,0.3-0.5,1-0.7,1.5c-0.2,0.6-0.5,1.2-0.7,1.7c-1.9,5.1-3.4,10.2-4.9,15.4c-5.9,20.6-11.6,43.6-28.9,57.8
			c-27.6,22.7-60.4,9.6-88.1-5.4c-13.1-7-26.4-15.7-41.3-17.4c-6-0.7-12.3,0-17.9,2.3c-3.2,1.3-9.1,5.6-12.2,8.5
			c-9.4,8.8-16.8,19.3-25.5,28.8c-10.4,11.3-26.1,26-42.8,22.4c-19.4-4.2-23.3-27.7-27.5-44c-4.4-17.1-7.3-34.7-9.1-52.2
			c-9-87,16.6-178.2,70-247.4c0.7-1.2,1.5-2.5,2.3-3.7c9.6-14.7,21.1-28.6,32.7-41.8c22.4-25.5,47.9-48.9,77.1-66.3
			c28.7-17.1,60.6-28.3,93.9-31.4c32-2.9,64.1,4.1,92.6,18.6c54.6,27.8,91.5,80.8,114,136.3c13.4,32.9,21.3,67.7,24.9,103.1
			C565,167.4,564.4,203.1,557,236.2z"/>
		<path class="st2" d="M276.2-38.2c-0.5,6.7-1.7,13.4-2.9,20c-2.3,12.3-5,24.6-7,37c-4.2,25.7-7.3,51.3-8.2,77.3
			c-0.9,26-0.4,51.8,1.2,77.8c0.8,13,2.5,26,4.2,38.9c0.8,6,2.1,11.9,2.5,17.9c0.4,5.3,2.2,12-0.8,16.7c-0.7,1-1.9,1.3-3,0.8
			c-5-2.6-6.6-9.2-8.8-14.1c-2.5-5.5-3.9-11.2-5.6-17c-3.7-12.9-6.5-25.9-9.3-39.1c-5.7-26.7-8.7-54.7-9.2-81.9
			c-0.5-27.4,0.8-54.9,4.6-82.1c1.9-13.2,3.9-26.7,7.5-39.6c1.8-6.6,4-12.8,6.6-19.1c2.7-6.6,7.8-12.2,12.8-17.2
			c4-4,11.8-2.4,13.1,3.5C275.4-51.8,276.7-45,276.2-38.2z"/>
		<path class="st2" d="M235.4-39.9c-5.3,18-15.3,34.6-25.2,50.4c-10.1,16.3-19.6,33.3-28.2,50.5c-8.3,16.6-15.9,33.5-22.8,50.7
			c-6.7,16.8-10.7,35.2-22,49.6c-0.7,0.9-2.1,0.3-2.5-0.7c-6.2-18.2-1.1-37.9,2.5-56.3C141.1,85,147,66.2,154.4,48
			C162,29.1,170.8,11,181.4-6.4c10.3-16.9,23.8-33.6,41.3-43.3C229.2-53.3,237.6-47.3,235.4-39.9z"/>
		<path class="st2" d="M479.6,178.3c-0.4,0.5-1.2,0.6-1.8,0.5c-3.3-0.7-4.5-3.1-6.3-5.7c-3.1-4.5-5.6-9-8.5-13.7
			c-5.2-8.6-10.2-17.2-14.9-26.1c-9.5-17.8-20.3-35-31.7-51.7c-22.3-32.8-46.1-63.2-73.8-91.7c-7.9-8.1-15.9-16-24.1-23.8
			c-3.9-3.7-7.4-8-11.2-11.9c-4.4-4.4-8-8.2-10-13.3c-2.7-5-6.6-8.9-8.3-14.5c-1.8-5.8,3.1-12.3,9.2-12.1c5.7,0.2,9.6,3,14.8,4.4
			c2,0.5,5.7,0.7,8.4,2.1c2.7,1.4,5.2,3.4,7.6,5.2c9.6,6.9,18.7,13.9,27.3,22c15.9,15,30.3,31.3,43.8,48.5
			c14,17.8,26.8,36.3,38.3,55.9c11.3,19.2,20.1,39.7,28.3,60.4c4.6,11.6,8.7,23.1,11.1,35.3c1.1,5.5,2.7,11.2,3.1,16.7
			C481.4,169.2,482.8,174.7,479.6,178.3z"/>
		<g>
			<path class="st2" d="M320.2,20.2c-0.1-0.1-0.1-0.2-0.2-0.4C320.3,20.1,320.3,20.2,320.2,20.2z"/>
			<path class="st2" d="M326.7,67.4c-3.4,4.6-8,5.8-13.3,3.5c-5.2-2.3-8.2-9.2-10.1-14.2c-1.5-4-3.3-7.9-4.3-12.1
				c-1.2-5-2.3-9.9-2.9-15.1c-0.1-1-0.4-2.1-0.4-3.1l0.5-3.5c0.2-1.1,0.3-1.2,0.2-0.3c-0.1,1,0,0.8,0.1-0.4c0.1-1.1,0.3-2.3,0.5-3.4
				c0.2-0.6,0.4-1.2,0.6-1.7c0.1-2,0.4-4,1.1-5.9c1.9-5,7.2-6.4,11.4-3c1.6,1.3,2.8,3,3.9,4.7c1.6,1.3,2.9,2.7,4,4.6
				c-1.8-3.2,1.9,2.5,2.2,2.7c0.8,1.5,1.4,3.2,2,4.7c1.7,4,2.8,8.1,3.9,12.2c1.2,4.1,1.6,8.4,2.3,12.7
				C329.3,55.1,330.2,62.6,326.7,67.4z"/>
		</g>
		<path class="st2" d="M198.5,107.5c-0.9,4.5-2.3,8.8-3.4,13.2c-1.2,4.4-2.9,8.7-4.5,12.9c-1.8,4.7-4.6,8.8-6.4,13.5
			c-1,2.6-5.3,2.5-5.1-0.7c0.2-4.8-0.8-9.6-0.6-14.4c0.2-5,0.5-10,1.2-15c0.7-4.7,1.2-9.5,2.2-14.1c1.1-5.3,2-11,6.1-14.9
			c4.1-3.9,9.4-1.7,11.4,3C201.5,96.1,199.6,102.3,198.5,107.5z"/>
		<path class="st3" d="M255.4,295.9c0.2-0.6-0.1,0.5-0.2,0.7c-0.4,1.8-2.4,2.7-4.1,2.3c-0.2-0.1-0.5-0.1-0.7-0.2
			c-0.8,0-1.5-0.1-2.4-0.4c-0.6-0.3-1.2-0.5-1.7-0.9c-0.7-0.5-1.4-0.9-2.1-1.3c-2.2-1.3-4-3.1-5.8-4.9c-1.9-1.9-3.8-3.8-5-6.2
			c-0.7-1.5-1.6-3-2.1-4.6c-0.3-1-0.6-2-0.8-3c-0.9-3.7,0.6-8.2,4.1-10c1.4-0.7,2.9-1.1,4.5-1.2c2.4-0.1,4.5,1.1,6.3,2.6
			c0.8,0.7,1.6,1.3,2.3,2.1c1.2,1.2,2.2,2.8,3.2,4.2c1.7,2.2,2.4,4.9,3.3,7.5c0.3,0.9,0.6,1.8,0.9,2.7c0.5,1.5,0.5,3.1,0.6,4.6
			c0.1,0.9,0.3,1.8,0.3,2.7C256.2,293.8,255.8,294.8,255.4,295.9z"/>
		<path class="st3" d="M287.3,302.5c0,0.1-0.1,0.3-0.1,0.4c-0.3,0.7-0.5,1.3-1.1,1.9c-0.5,0.5-1.1,0.8-1.8,1c-0.1,0-0.3,0.1-0.4,0.1
			c-0.5,0.1-1.1,0.2-1.6,0.2c-0.2,0-0.5-0.1-0.7-0.1c-0.4-0.1-0.7-0.2-0.9-0.5c-0.2-0.1-0.4-0.3-0.5-0.5c-0.2-0.3-0.4-0.6-0.5-0.9
			c0-0.1,0-0.1,0-0.2c-0.1-0.1-0.2-0.2-0.3-0.4c-0.2-0.4-0.2-0.8,0.1-1.1c0.1-0.1,0.2-0.1,0.4-0.2c0-0.1,0-0.2,0.1-0.3c0,0,0,0,0,0
			c0.1-0.1,0.1-0.2,0.2-0.3c0,0,0-0.1,0-0.1c0,0,0-0.1,0-0.1c0,0,0,0,0-0.1c0.1-0.3,0.2-0.6,0.4-0.8c0.1-0.1,0.2-0.3,0.3-0.4
			c0,0,0.1-0.1,0.1-0.1c0,0,0,0,0,0c0.1-0.3,0.3-0.8,0.3-0.8c0.2-0.2,0.3-0.4,0.5-0.7c0.1-0.1,0.2-0.1,0.3-0.2c0,0,0-0.1,0.1-0.1
			c0.3-0.3,0.7-0.4,1.1-0.5c0,0,0,0,0,0c0,0,0,0,0,0c0.1,0,0.2-0.1,0.3-0.1c0.1,0,0.2,0,0.3,0c0.2,0,0.4-0.1,0.7,0
			c0.4,0,0.8,0.2,1.2,0.4c0.2,0.2,0.4,0.3,0.7,0.5c0.4,0.4,0.7,0.9,0.8,1.5c0.1,0.3,0.2,0.9,0.1,1.3
			C287.5,301.7,287.4,302.1,287.3,302.5z"/>
		<path class="st3" d="M309.4,262.6c-0.1,0.6-0.1,1.1-0.2,1.7c-0.2,1.7-0.4,3.2-1.3,4.7c-0.1,0.2-0.3,0.4-0.4,0.6
			c-0.3,0.4-0.6,0.9-0.9,1.3c-0.7,1-1.6,1.9-2.5,2.5c-0.5,0.5-0.9,1.1-1.4,1.6c-1.2,1.4-3.8,1.4-5,0c-0.5-0.5-0.9-1.1-1.4-1.6
			c-0.9-0.6-1.7-1.4-2.4-2.4c-0.3-0.4-0.6-0.9-0.9-1.3c-0.9-1.3-1.5-2.7-1.7-4.3c-0.1-1-0.3-1.9-0.4-2.9c-0.2-1.2-0.4-2.4-0.3-3.6
			c0.1-1.3,0.1-2.7,0.4-4c0.3-1.3,1-2.4,1.7-3.5c1.7-2.6,4.4-4.3,7.5-4.3c3.1,0,5.9,1.7,7.5,4.3c0.7,1,1.3,2.2,1.6,3.3
			c0.4,1.3,0.4,2.7,0.5,4C309.7,260.2,309.5,261.4,309.4,262.6z"/>
		<path class="st3" d="M473.9,222c-0.4,0.6-1.2,1-1.9,0.8c-0.8-0.2-1.5-0.5-2.3-0.9c-0.1-0.1-0.4-0.2-0.7-0.3c0,0,0,0.1-0.2,0
			c-0.1,0-0.3-0.1-0.4-0.1c-2-0.5-4.3-1.2-5.6-2.8c-1-1.2-1.9-2.5-2.6-3.9c-0.2-0.5-0.5-1-0.6-1.6c-0.1-0.5-0.2-1.2-0.2-1.8
			c0-0.3-0.1-0.6-0.1-0.9c-0.1-1.3-0.1-2.7,0.6-3.9c1.3-2.1,3.7-2.6,5.9-1.5c1.2,0.6,1.9,1.9,2.7,3.1c0.3,0.4,0.6,0.7,0.8,1.1
			c0.1,0.2,0.2,0.5,0.3,0.7c0.4,0.8,0.8,1.7,1.2,2.5c0.1,0.2,0.2,0.3,0.3,0.5c0.5,1,0.6,1.8,0.7,2.9c0,0.2,0,0.4,0.1,0.6
			c0,0.2,0.1,0.4,0.1,0.6c0,0.2,0.1,0.5,0.1,0.7c0,0,0,0.2,0.1,0.3c0.1,0.1,0.2,0.3,0.2,0.4c0.1,0.2,0.2,0.4,0.4,0.5
			c0.1,0.2,0.2,0.4,0.4,0.5c0.1,0.1,0.1,0.2,0.2,0.3c-0.1-0.1-0.1-0.1,0.1,0.1C474.1,220.6,474.3,221.3,473.9,222z"/>
		<path class="st3" d="M505.6,242.4c-0.5,0.8-1.2,1.3-2,1.7c-0.1,0-0.1,0.1-0.2,0.1c-0.2,0.2-0.5,0.2-0.7,0.3
			c-0.2,0.2-0.3,0.4-0.5,0.5c-0.6,0.6-1.8,0.2-1.7-0.7c0-0.1,0-0.2,0-0.3c-0.1-0.1-0.1-0.2-0.2-0.3c0,0,0,0-0.1-0.1c0,0.1,0,0.1,0,0
			c-0.8-0.6-1.4-1.3-1.7-2.3c-0.1-0.2-0.1-0.4-0.2-0.6c-0.1-0.2-0.1-0.3-0.2-0.5c-0.4-0.8-0.7-1.6-0.7-2.5c0-0.2,0-0.3,0.1-0.5
			c0.1-0.7,0.1-1.3,0-2c-0.1-1.1,0.7-2.3,1.6-2.8c1-0.6,2.3-0.6,3.3,0c0.8,0.5,1.5,1,2.2,1.6c0.7,0.7,1.3,1.5,1.6,2.4
			c0.2,0.7,0.2,1.4,0.2,2.1C506.4,239.9,506.3,241.4,505.6,242.4z"/>
		<path class="st3" d="M532.7,195c-0.1,0.6-0.1,1.1-0.2,1.7c-0.1,1.1-0.2,2.3-0.5,3.4c-0.3,1.1-0.8,2.3-1.3,3.3
			c-0.2,0.5-0.5,1-0.7,1.6c-0.1,0.3-0.2,0.5-0.4,0.8c-0.7,1.3-1.6,2.3-2.8,3.1c-0.4,0.4-0.8,0.7-1.2,0.9c-1.7,0.9-3.6,1.7-5.5,1.9
			c-1,0.2-2.1,0.2-3,0c-1.2-0.3-2.5-1.1-3.3-2.1c0.5,0.4,1,0.8,1.5,1.2c-2-1.1-3.3-3-4.5-4.8c-1.7-2.5-1.7-5.4-1.5-8.2
			c0.1-1.6,0.2-3,0.8-4.4l0.7-1.7c0.3-0.7,0.6-1.3,0.8-2c0.3-0.9,0.7-1.8,1.4-2.5c0.8-1.2,1.8-2.2,3.1-2.9c0.9-0.5,1.9-1,2.9-1.2
			c1.8-0.4,3.9-0.6,5.7,0C529.7,184.7,533.4,189.6,532.7,195z"/>
		<path class="st1" d="M545.3,333.7c-2.7,4.5-7.5,9.1-11.5,12.4c-7.8,6.3-17.1,10.9-26.7,14c-20.1,6.5-40.8,3.7-60.4-3.1
			c-17.7-6.2-35.8-14.3-54.4-6.9c-15.7,6.3-29.2,19.8-39.5,32.7c-6.3,7.9-11.9,16-20,22.3c-8.3,6.5-15.7,7.8-26,6.7
			c-0.8-0.1-1.1-1-0.4-1.5c5-3.2,7.6-8.6,11.2-13.1c3.5-4.4,6.2-9.4,9.2-14.2c5.8-9.3,10.9-19,17.3-27.9
			c14.1-19.5,32.8-36,57.4-39.6c13.4-2,26.9,0.8,39.7,4.9c11.7,3.7,23.5,9.2,35.9,10c9.4,0.6,18.5-1.2,27.1-5.2
			c5.1-2.4,10.1-5.8,14.7-9c3-2.1,4.9-4.6,8.7-5.7c3.3-0.9,4.7,0,7.1-0.9c5.7-2.1,12.9,3.4,12.4,9.4
			C546.7,322.8,548.1,328.9,545.3,333.7z"/>
		<path class="st1" d="M543.2,394.9c-7.4,9.6-16.2,16.2-28.1,19.3c-10.2,2.7-21.2,3.9-31.8,3c-10-0.8-22.7-3.7-31.1-9.5
			c-4.3-2.9-8.9-6.5-11.9-10.7c-1.4-2-2.2-4-3.1-6.1c-0.4-1-1.4-2.6-1.8-4.6c-0.2-0.9,0.4-1.7,1.3-1.7c1.7-0.1,3.1,0.1,4.6,0.4
			c2.8-0.6,5.7-0.1,8.5,0.3c4.2,0.6,8.5,0.9,12.6,1.6c8.2,1.4,14,2,23,2.1c1.9,0,3.9,0,5.8-0.1c1-0.1,1.9-0.1,2.9-0.2
			c0.5,0,1.3-0.1,1.8-0.2c3.8-0.6,7.7-1.5,11.4-2.6c3.9-1.2,7.8-2.4,11.6-3.7c0.9-0.3,1.8-0.5,2.7-0.7c0.2,0,5.2-1.2,2.8-0.5
			c2.2-0.7,4.4-1.2,6.7-1.8c4.1-1.1,8.7,0.4,11.2,3.8C544.6,386.1,545.8,391.5,543.2,394.9z"/>
	</g>
</g>
</svg>
