<?xml version="1.0" encoding="utf-8"?>
<!-- Generator: Adobe Illustrator 26.0.1, SVG Export Plug-In . SVG Version: 6.00 Build 0)  -->
<svg version="1.1" id="Layer_1" xmlns="http://www.w3.org/2000/svg" xmlns:xlink="http://www.w3.org/1999/xlink" x="0px" y="0px"
	 viewBox="0 0 595.3 595.3" style="enable-background:new 0 0 595.3 595.3;" xml:space="preserve">
<style type="text/css">
	.st0{clip-path:url(#SVGID_00000009565079352074077010000006047211973303947418_);}
	.st1{fill:#1D3EFF;}
	.st2{fill:#DAF22F;}
	.st3{fill:#FFFFFF;}
</style>
<g>
	<defs>
		<rect id="SVGID_1_" x="0" y="0" width="595.3" height="595.3"/>
	</defs>
	<clipPath id="SVGID_00000044879660916304696480000015245565148452761515_">
		<use xlink:href="#SVGID_1_"  style="overflow:visible;"/>
	</clipPath>
	<g style="clip-path:url(#SVGID_00000044879660916304696480000015245565148452761515_);">
		<path class="st1" d="M641.5,258.3c10.9-11,21.4-22.4,31.4-34.1c9.3-10.8,16.9-22.5,20.1-36c3.9-16.5-3.6-30.8-12.8-42.5
			c-6.6-8.5-14.6-16.1-23.4-22.5c-3.2-3.5-6.5-6.9-10.1-10.1C630.9,99,610.7,85.5,587,86.6c-46.6,2-78.3,49.7-105.3,83.2
			c-3.9,4.8-7.8,9.7-11.8,14.4c-2.1,2.5-4.2,5-6.3,7.4c-0.8,0.9-1.5,1.8-2.3,2.7c-0.8,0.9-1.6,1.8-2.3,2.7c-0.3,0.3-0.5,0.5-0.6,0.7
			c-8.3,9.1-16.9,18-26.3,26.1c-4.1,3.5-8.3,6.9-12.6,10.1c-0.7,0.5-1.5,1.1-2.2,1.6c-0.2,0.2-0.4,0.3-0.5,0.4
			c-0.1,0.1-0.1,0.1-0.2,0.1c-2.3,1.5-4.6,3-6.9,4.4c-8.2,5-16.6,9.2-25.4,12.8c-0.1,0.1-0.2,0.1-0.3,0.1c-0.2,0.1-0.3,0.1-0.5,0.2
			c-1.3,0.4-2.5,0.9-3.8,1.3c-2.1,0.7-4.2,1.3-6.3,1.9c-4.6,1.2-9.3,2.1-13.9,2.9c-0.1,0-0.2,0-0.3,0.1c-0.1,0-0.2,0-0.4,0
			c-0.8,0.1-1.7,0.1-2.5,0.2c-2.1,0.1-4.2,0.2-6.3,0.2c-2.3,0-4.6-0.1-6.9-0.2c-1-0.1-2.1-0.2-3.1-0.3c-0.3,0-0.5-0.1-0.7-0.1
			c-0.4-0.1-0.8-0.1-1.2-0.2c-4.6-0.8-9-2-13.3-3.5c-1.2-0.4-2.3-0.9-3.4-1.3c-0.1,0-0.2-0.1-0.3-0.1c-0.2-0.1-0.3-0.1-0.5-0.2
			c-2.6-1.3-5.2-2.5-7.8-3.9c-9.6-5.3-18.4-11.6-27.2-18c-5.1-3.8-10.2-7.7-15.2-11.6c-2.5-2-5-4-7.4-6c0.2,0.1-1.7-1.4-2.2-1.9
			c-0.2-0.1-0.3-0.3-0.5-0.4c-0.8-0.7-1.6-1.4-2.4-2.1c-9.6-8.3-19-16.9-28-25.9c-18.4-18.2-35.4-37.8-51-58.6
			c-3-4-8.7-5.4-13.8-4.8c-5.9,0.7-10,3.7-13.8,8.3c-19.1,22.7-38.1,45.5-57.2,68.2c-3.9,4.7-4.2,12.1-2.1,16.9
			c23.9,52.6,57.8,100.3,99.9,139.3c20.8,19.3,43.6,38.6,69.2,52c24.8,13,52.7,16.9,82.2,13.5c55.4-6.5,110.9-27.1,161.2-55.2
			C554.6,335.8,600.9,299.5,641.5,258.3z"/>
		<path class="st2" d="M149.1,244.5c8-9.3,16-18.7,23.9-28c7.6-9,15.1-18,23.2-26.6c4.3-4.6,7.9-9.7,12-14.4
			c4-4.6,7.8-9.9,10.6-15.3c1.1-2-0.7-4-2.8-3.2c-5.4,2.1-10.7,5-15.4,8.3c-5.4,3.7-10.9,7.3-15.8,11.6c-9.6,8.3-19.3,16.4-28.6,25
			c-9.1,8.4-17.6,17.2-25.9,26.4c-4.6,5.2-9.1,10.5-12.5,16.6c-3,5.4-4.1,11.2-4.3,16.1c-0.1,3.1,2.8,6.2,6.1,5.3
			c5.8-1.5,11.1-3.7,15.7-7.6C140.4,254.4,144.8,249.5,149.1,244.5z"/>
		<path class="st2" d="M236.6,368c6.3-9.9,11-21.2,15.7-31.9c4.6-10.4,9.4-20.8,13.9-31.2c5.2-12,10.4-24,15.1-36.2
			c4.4-11.3,10.5-23.7,10.6-36c0-1.8-1.9-2.6-3.3-1.6c-9,6.5-15.2,17.1-21.1,26.4c-6.1,9.6-11.9,19.4-17.7,29.2
			c-11.9,20.3-23.4,41.2-33.1,62.6c-2.3,5.1-4,10.3-4.7,15.8c-0.4,3.3-0.1,5.6,0.5,8.7c0.4,2.5,0,4.5,1.9,6.5
			c2.4,2.6,5.5,1.8,8.3,0.2C228.6,377.3,233,373.7,236.6,368z"/>
		<path class="st2" d="M366.7,414.4c5.6-7.3,4.5-17.8,3.8-26.4c-0.7-7.9-1.7-15.8-2.6-23.7c-1.6-14.9-3.1-29.8-4-44.8
			c-1-15.8-2.2-31.6-3.3-47.3c-0.3-3.7-0.7-7.4-1.2-11c-0.4-2.8-0.7-7.2-2-9.7c-1.9-3.6-6.3-5.8-9.2-2.4c-0.3,0.3-0.2,0.8,0.1,1.1
			c-0.6,4.5-2.9,9.8-4.2,14.6c-1.9,7.1-2.9,14.6-3.7,21.9c-1.5,14.2-2.8,28.3-3,42.7c-0.2,14.9,0.4,29.7,1.4,44.6
			c1,14.3,1.2,34.5,13.7,43.4C357.3,420.7,363.4,418.6,366.7,414.4z"/>
		<path class="st2" d="M519.2,357.1c0.5-2.8,0.1-5.2-0.5-7.8c0.3-3.1-0.6-5.8-1.9-9c-1.3-3.2-2.2-6.5-3.9-9.6
			c-3.5-6.3-7.3-12.5-11.3-18.6c-8.2-12.5-16.6-24.7-25.5-36.7c-8.4-11.3-17.1-22.3-26.3-33.1c-4.7-5.5-9.6-10.9-14.8-15.8
			c-2.4-2.3-4.9-4.5-7.6-6.3c-2.8-1.9-6-2.7-8.8-4.5c-1.2-0.8-2.5,0.6-2,1.8c1,2.6,1.1,5.4,2,8c1.1,3.2,2.5,6.3,4.1,9.2
			c3.5,6.2,7.4,12.2,11.2,18.2c7.6,11.8,15.3,23.5,22.8,35.4c7.3,11.6,14.6,23.3,21.8,35c3.8,6.2,7.6,12.3,11.6,18.4
			c2.2,3.3,4.6,6.1,7.1,9.1c2.4,2.9,4.2,5.5,7.6,6.8c2.1,1.9,4.2,3.4,7,4.5C515.4,363.6,518.7,360.5,519.2,357.1z"/>
		<path class="st2" d="M620.9,272.3c-1.5-4-4.1-6.1-6.7-9.4c-2.6-3.3-4.8-6.4-7.9-9.3c-5.8-5.4-12.1-10.6-18.2-15.5
			c-12.7-10.3-26.2-19.6-39.6-28.9c-13.1-9.1-26.3-18.1-39.7-26.8c-6.8-4.4-13.4-8.5-20.7-12.1c-6-3-12.6-5.8-19.2-3.4
			c-0.5,0.2-0.8,0.8-0.8,1.2c-0.1,7.1,5,12.5,9.7,17.2c5.6,5.6,11.7,10.4,17.9,15.3c12.9,10.1,25.9,20,39,29.8
			c12.8,9.6,25.6,19.1,38.9,28.1c6.5,4.4,13.4,8.9,20.4,12.6c3.9,2.1,7.7,3.3,11.8,4.8c3.8,1.4,6.4,3.1,10.6,3.3
			C620.1,279.4,622.1,275.6,620.9,272.3z"/>
		<path class="st2" d="M694.3,193c-0.6-8.1-7.8-14.3-14-18.7c-6.2-4.4-12.6-8.5-19.2-12.4c-14-8.3-28-16.5-42.1-24.6
			c-13.8-8-28-15.5-42.3-22.4c-13.7-6.7-28.1-14.8-43.6-16.4c-1.6-0.2-2.2,1.7-1.4,2.9c9.1,12.4,23.3,20.9,35.7,29.5
			c13.3,9.2,27,18.1,40.8,26.6c13.5,8.4,27,16.8,40.5,25.3c6.7,4.2,13.6,8.3,20.7,11.9c6.9,3.5,14.8,6.3,22.4,3.3
			C693.9,197.1,694.4,194.9,694.3,193z"/>
		<path class="st3" d="M559.8,154.2c0-0.1,0.1-0.2,0.1-0.2c0.7-1.1,1.1-2.3,1.2-3.6c0.1-1.3-0.2-2.5-0.7-3.7
			c-0.6-1.2-1.5-2.2-2.6-2.9c-1.1-0.7-2.3-1.1-3.6-1.2c-1.3-0.1-2.5,0.2-3.7,0.7c-1.2,0.6-2.2,1.5-2.9,2.6c-0.7,1.1-1.1,2.3-1.2,3.6
			c-0.1,1.3,0.2,2.5,0.7,3.7c0,0.1,0.1,0.2,0.1,0.3c0.3,0.7,0.7,1.2,1.1,1.8c0.6,0.8,1.4,1.3,2.3,1.6c0.8,0.5,1.7,0.7,2.6,0.7
			c0.6,0,1.2-0.1,1.8-0.1c1.3-0.2,2.4-0.8,3.3-1.6C558.9,155.3,559.5,154.9,559.8,154.2z"/>
		<path class="st3" d="M586.2,208.7c1.2-1.2,2-2.6,2.5-4.2c0.7-2.1,0.8-4.2,0.4-6.3c-0.3-1-0.7-2.1-1-3.1c-1-2.1-2.5-3.7-4.4-5
			c-1-0.5-2-0.9-2.9-1.4c-2.1-0.7-4.2-0.8-6.3-0.4c-1,0.3-2,0.6-3,1c-1,0.5-2,1.2-2.9,1.9c-1.3,1.1-2.3,2.4-2.9,4
			c-0.8,1.4-1.3,2.9-1.3,4.6c-0.2,1.7,0.1,3.2,0.7,4.7c0.4,1.6,1.2,3.1,2.4,4.3c1.5,1.7,3.3,2.9,5.5,3.6c1,0.2,2.1,0.4,3.1,0.6
			c2.2,0.1,4.3-0.3,6.3-1.2C583.9,211.1,585.2,210.1,586.2,208.7z"/>
		<path class="st3" d="M634.7,211.6c0.4-1.2,0.5-2.4,0.2-3.6c-0.2-1.2-0.8-2.3-1.6-3.3c-0.1-0.1-0.1-0.2-0.2-0.2
			c-0.3-0.3-0.5-0.5-0.9-0.8c-0.7-0.7-1.5-1.2-2.5-1.5c-0.6-0.1-1.2-0.2-1.8-0.4l-0.1,0l-1.9,0.1c-0.1,0-0.2,0.1-0.3,0.1
			c-0.4,0.1-0.7,0.2-1.1,0.3c-1.1,0.2-2.1,0.7-2.9,1.5c-0.7,0.5-1.2,1.2-1.5,2c-0.4,0.7-0.6,1.5-0.7,2.3c-0.1,1.1,0.1,2.2,0.6,3.1
			c0.2,0.3,0.4,0.6,0.5,0.9c0,0.1,0.1,0.1,0.1,0.2c0.4,0.9,1,1.7,1.8,2.3c0.2,0.2,0.5,0.5,0.8,0.7c0.3,0.2,0.6,0.3,0.9,0.4
			c0.5,0.4,1.1,0.5,1.8,0.6c0.9,0.3,1.8,0.3,2.8,0.1c0,0,0,0,0.1,0c0,0,0.1,0,0.1,0c0.1,0,0.2,0,0.3,0c1.2-0.2,2.3-0.8,3.3-1.6
			C633.6,213.8,634.3,212.8,634.7,211.6z"/>
		<g>
			<path class="st3" d="M488.5,228.8C488.5,228.8,488.5,228.8,488.5,228.8C488.5,228.8,488.6,228.8,488.5,228.8
				C488.6,228.8,488.6,228.8,488.5,228.8z"/>
			<path class="st3" d="M487.1,229.3c0.1,0,0.1,0,0.2-0.1c0.4-0.2,0.8-0.3,1.2-0.4C488,228.9,487.6,229.1,487.1,229.3z"/>
			<path class="st3" d="M496,239.7c0.4-0.4,0.7-0.9,0.9-1.4c0.4-0.7,0.7-1.5,0.7-2.4c0,0,0-0.1,0-0.1c0-0.6-0.1-1.2-0.1-1.8
				c-0.2-0.6-0.4-1.1-0.6-1.7c-0.4-0.9-0.9-1.6-1.7-2.1c-0.4-0.5-0.9-0.8-1.5-1c-0.8-0.4-1.6-0.7-2.5-0.7c-0.6-0.1-1.5,0.1-1.9,0.1
				c-0.1,0-0.2,0-0.2,0c-0.6,0.1-1.2,0.4-1.8,0.6c-0.6,0.3-1.1,0.6-1.6,1c-0.8,0.7-1.4,1.6-1.8,2.7c-0.3,1-0.4,2-0.2,3.1
				c0.2,1,0.7,2,1.4,2.8c0.2,0.3,0.4,0.7,0.7,1c0.6,0.7,1.3,1.2,2.2,1.6c0.5,0.3,1,0.5,1.6,0.5c0.8,0.2,1.7,0.3,2.6,0.1
				c0.1,0,0.2,0,0.2-0.1c0.5-0.2,1.1-0.4,1.6-0.5C494.8,240.9,495.4,240.4,496,239.7z"/>
		</g>
		<path class="st3" d="M524.5,306.4c0.7-0.7,1.2-1.5,1.5-2.5c0.1-0.6,0.2-1.3,0.4-1.9c0-0.6-0.1-1.3-0.1-1.9
			c-0.1-0.7-0.4-1.3-0.7-1.9c-0.1-0.2-0.1-0.3-0.2-0.5c-0.4-0.6-0.8-1.2-1.2-1.8c-0.7-0.9-1.6-1.5-2.6-1.9c-0.9-0.5-1.9-0.8-3-0.8
			l-2.1,0.1c-1.1,0.2-2,0.6-2.9,1.3c-1,0.5-1.7,1.3-2.3,2.2c-0.3,0.6-0.6,1.3-0.9,1.9c-0.4,1-0.5,2-0.3,3.1c0,1.1,0.2,2.1,0.7,3
			c0.4,0.6,0.8,1.2,1.2,1.8c0.7,0.9,1.6,1.5,2.6,1.9c0.9,0.5,1.9,0.8,3,0.8l2.1-0.1c0.2,0,0.4-0.2,0.7-0.2c0,0,0,0,0,0
			c1-0.2,1.9-0.6,2.7-1.2C523.6,307.4,524.1,306.9,524.5,306.4z"/>
		<path class="st3" d="M568,301.9c0.8-1.2,1.3-2.6,1.4-4.1c0-0.7-0.1-1.4-0.1-2.2c-0.3-1.5-1-2.8-2-4c-0.7-0.9-1.6-1.6-2.7-2
			c-0.9-0.6-2-0.9-3.1-0.9c-1.1-0.1-2.2,0-3.2,0.5c-1.1,0.3-2.1,0.8-2.9,1.6c-0.5,0.6-1,1.1-1.5,1.7c-0.8,1.2-1.3,2.6-1.4,4.1
			c0,0.7,0.1,1.4,0.1,2.2c0.3,1.5,1,2.8,2,4c0.7,0.9,1.6,1.6,2.7,2c0.9,0.6,2,0.9,3.1,0.9c1.1,0.1,2.2,0,3.2-0.5
			c1.1-0.3,2.1-0.8,2.9-1.6C567,303,567.5,302.4,568,301.9z"/>
		<path class="st3" d="M518.3,268.7c0.8-1.3,1.3-2.7,1.4-4.3c0-0.8-0.1-1.5-0.1-2.3c-0.3-1.6-1-2.9-2-4.1c-0.8-0.9-1.7-1.6-2.8-2
			c-1-0.6-2.1-0.9-3.2-0.9c-1.2-0.1-2.3,0.1-3.3,0.5c-1.2,0.3-2.2,0.8-3.1,1.7c-0.5,0.6-1,1.2-1.6,1.8c-0.8,1.3-1.3,2.7-1.4,4.3
			c0,0.8,0.1,1.5,0.1,2.3c0.3,1.6,1,2.9,2,4.1c0.8,0.9,1.7,1.6,2.8,2c1,0.6,2.1,0.9,3.2,0.9c1.2,0.1,2.3-0.1,3.3-0.5
			c1.2-0.3,2.2-0.8,3.1-1.7C517.2,269.9,517.7,269.3,518.3,268.7z"/>
		<path class="st3" d="M417,277c0.3-0.5,0.5-1,0.5-1.6c0.2-0.6,0.2-1.1,0.1-1.7c-0.1-1.1,0-0.6-0.3-1.7c-0.1-0.6-0.4-1.1-0.8-1.6
			c-0.1-0.3-0.3-0.5-0.5-0.8c0,0-0.1-0.1-0.1-0.1c-0.1-0.1-0.2-0.3-0.4-0.4c-0.2-0.3-0.6-0.6-0.8-0.7c-0.4-0.5-1-0.8-1.6-1
			c-0.3-0.2-0.6-0.3-0.9-0.4c-0.1,0-0.2-0.1-0.3-0.1l-0.7-0.2c-0.9-0.3-1.8-0.4-2.7-0.3c-0.9,0-1.8,0.2-2.7,0.6
			c-0.5,0.4-1.1,0.7-1.6,1.1c-0.8,0.6-1.3,1.4-1.6,2.3c-0.3,0.5-0.5,1.1-0.6,1.7c-0.2,0.9-0.3,1.8-0.1,2.7c0.2,0.6,0.4,1.2,0.6,1.7
			c0.6,1.2,1.4,2.1,2.5,2.8c0.2,0.1,0.4,0.2,0.5,0.3c0.1,0.1,0.2,0.1,0.3,0.2c0,0,0,0,0.1,0c0.6,0.3,1.1,0.5,1.7,0.8l1.8,0.4
			c0,0,0,0,0.1,0l1.8-0.1c0,0,0.1,0,0.1,0c0,0,0.1,0,0.1,0c0.1,0,0.2,0,0.3,0c0.1,0,0.2,0,0.3,0l1.7-0.6c0.5-0.3,1-0.7,1.5-1
			C416.4,278.4,416.5,278,417,277z"/>
		<path class="st3" d="M390.9,313.1c0.5-0.8,0.8-1.8,0.9-2.8c0-0.5-0.1-1-0.1-1.4c-0.2-1-0.6-1.9-1.3-2.7c-0.5-0.6-1.1-1-1.8-1.3
			c-0.6-0.4-1.3-0.6-2.1-0.6c-0.8-0.1-1.5,0-2.1,0.3c-0.7,0.2-1.4,0.5-2,1.1c-0.3,0.4-0.7,0.8-1,1.2c-0.5,0.8-0.8,1.8-0.9,2.8
			c0,0.5,0.1,1,0.1,1.4c0.2,1,0.6,1.9,1.3,2.7c0.5,0.6,1.1,1,1.8,1.3c0.6,0.4,1.3,0.6,2.1,0.6c0.8,0.1,1.5,0,2.1-0.3
			c0.7-0.2,1.4-0.5,2-1.1C390.2,313.9,390.6,313.5,390.9,313.1z"/>
		<path class="st3" d="M442.1,319.7c0.4-0.6,0.6-1.3,0.6-2c0.1-1-0.1-1.9-0.5-2.8c-0.4-0.9-1.1-1.6-1.9-2.2
			c-0.1-0.1-0.3-0.2-0.4-0.4c-0.8-0.7-1.9-1-2.9-1.1c-0.7-0.1-1.4,0-2,0.3c-0.7,0.2-1.3,0.5-1.8,1c-0.3,0.4-0.6,0.7-0.9,1.1
			c-0.5,0.8-0.8,1.6-0.9,2.6c-0.1,1.1,0.1,2.1,0.7,3c0.1,0.2,0.2,0.3,0.3,0.5c0.4,0.9,1.1,1.6,1.9,2.2c0.8,0.5,1.7,0.8,2.7,0.9
			c0.5,0,0.9-0.1,1.4-0.1c1-0.2,1.8-0.6,2.6-1.3C441.4,321,441.8,320.4,442.1,319.7z"/>
		<path class="st3" d="M405.6,367.7c0.4-1.2,0.6-2.3,0.4-3.5c0-1.2-0.3-2.4-0.8-3.5c-0.7-1.3-1.6-2.4-2.8-3.3c-0.3-0.4-0.6-0.7-1-1
			c-0.3-0.2-0.7-0.3-1.1-0.4l0,0c-0.1,0-0.1,0-0.2-0.1c-0.1,0-0.1-0.1-0.2-0.1c0,0,0,0,0,0c-0.5-0.2-1-0.4-1.5-0.5
			c-1-0.3-2.1-0.3-3.1-0.1c-2.9,0.6-1.4,0.3-2.1,0.7c-0.3,0.2-1,0.7-1,0.7c-0.3,0.2-0.7,0.5-1.1,0.7c-0.2,0.1-0.3,0.2-0.4,0.4
			c-1.3,1.1-2.2,2.5-2.7,4.1c-0.5,1.5-0.6,3.1-0.3,4.7c0.3,1.6,1,3.1,2.2,4.4c1.1,1.3,2.5,2.2,4.1,2.7c0,0,0,0,0,0
			c1.5,0.5,3.1,0.6,4.7,0.3c1.6-0.3,3.1-1,4.3-2.1c0,0,0,0,0,0C404.2,370.6,405.1,369.3,405.6,367.7z"/>
		<path class="st3" d="M458.1,363.9c0.8-1.2,1.2-2.6,1.3-4c0-0.7-0.1-1.4-0.1-2.1c-0.3-1.5-0.9-2.8-1.9-3.9
			c-0.7-0.9-1.6-1.5-2.6-1.9c-0.9-0.5-1.9-0.8-3-0.9c-1.1-0.1-2.1,0-3.1,0.5c-1.1,0.3-2,0.8-2.9,1.6c-0.5,0.6-1,1.1-1.5,1.7
			c-0.8,1.2-1.2,2.6-1.3,4c0,0.7,0.1,1.4,0.1,2.1c0.3,1.5,0.9,2.8,1.9,3.9c0.7,0.9,1.6,1.5,2.6,1.9c0.9,0.5,1.9,0.8,3,0.9
			c1.1,0.1,2.1,0,3.1-0.5c1.1-0.3,2-0.8,2.9-1.6C457.2,365,457.7,364.5,458.1,363.9z"/>
		<path class="st3" d="M314.8,283.9c0.4-0.7,0.6-1.5,0.7-2.3c0.1-1.1-0.1-2.1-0.6-3.1c-0.5-1-1.2-1.9-2.2-2.5
			c-0.5-0.3-1-0.5-1.5-0.8c-0.4-0.2-0.9-0.4-1.3-0.6c-0.7-0.3-1.4-0.3-2.1-0.2c-0.5,0-1,0.1-1.4,0.3c-0.7,0.2-1.4,0.5-1.9,1.1
			c-0.3,0.4-0.7,0.8-1,1.1c-0.2,0.4-0.4,0.9-0.6,1.3c-0.3,0.7-0.3,1.4-0.2,2.1c0,0.7,0.2,1.4,0.5,2.1c0.2,0.5,0.4,1.1,0.6,1.6
			c0.5,1,1.2,1.9,2.2,2.5c0.9,0.6,1.9,0.9,3,1c0.5,0,1.1-0.1,1.6-0.1c1.1-0.2,2.1-0.7,2.9-1.4C314,285.3,314.5,284.7,314.8,283.9z"
			/>
		<path class="st3" d="M290.7,319.2c0.3-0.6,0.6-1.1,0.8-1.7c0.4-1.2,0.5-2.5,0.2-3.7c-0.1-0.4-0.3-0.9-0.4-1.3
			c-0.3-1.3-0.8-2.5-1.7-3.5c-0.5-0.4-1-0.9-1.5-1.3c-1.1-0.7-2.3-1.1-3.6-1.2c-1-0.1-1.9,0-2.8,0.4c-1,0.2-1.8,0.7-2.6,1.4
			c-0.8,0.7-1.4,1.5-1.7,2.4c-0.5,0.8-0.8,1.8-0.8,2.8c-0.1,1.3,0.2,2.6,0.7,3.8c0.2,0.4,0.5,0.8,0.7,1.2c0.4,0.9,1,1.7,1.8,2.3
			c0.7,0.7,1.5,1.2,2.5,1.5c0.6,0.1,1.2,0.2,1.8,0.4c1,0.1,1.9,0,2.8-0.4c0.6-0.1,1.2-0.4,1.7-0.8
			C289.5,320.8,290.2,320.1,290.7,319.2z"/>
		<path class="st3" d="M312.7,351.5c1.1-1.7,1.7-3.5,1.8-5.4c0-0.1,0-0.2,0-0.3c-0.1-1-0.1-2-0.2-2.9c-0.3-0.9-0.6-1.9-1-2.8
			c-0.7-1.5-1.6-2.7-2.9-3.6c-0.7-0.8-1.5-1.3-2.5-1.7c-0.9-0.6-1.8-0.9-2.8-0.9c-1-0.3-1.9-0.4-2.9-0.2c-1-0.1-2,0.1-2.9,0.6
			c-1.5,0.4-2.8,1.1-4,2.2c-0.7,0.8-1.4,1.6-2,2.3c-0.4,0.9-0.9,1.8-1.3,2.7c-0.2,1-0.4,1.9-0.6,2.9c0.1,1,0.1,2,0.2,2.9
			c0.3,0.9,0.6,1.9,0.9,2.8c0.7,1.5,1.6,2.7,2.9,3.6c0.7,0.8,1.5,1.3,2.5,1.7c1.3,0.8,2.7,1.2,4.2,1.2l0.3,0
			c1.5,0.1,2.9-0.1,4.3-0.6c1.5-0.4,2.8-1.1,3.9-2.1C311.4,353,312,352.2,312.7,351.5z"/>
		<path class="st3" d="M259.9,377.7c0.7-1,1-2.1,1.1-3.3c0-0.6-0.1-1.2-0.1-1.7c-0.2-1.2-0.8-2.3-1.6-3.2c-0.6-0.7-1.3-1.3-2.2-1.6
			c-0.8-0.5-1.6-0.7-2.5-0.7c-0.9-0.1-1.8,0-2.6,0.4c-0.9,0.2-1.7,0.7-2.4,1.3c-0.4,0.5-0.8,0.9-1.2,1.4c-0.7,1-1,2.1-1.1,3.3
			c0,0.6,0.1,1.2,0.1,1.7c0.2,1.2,0.8,2.3,1.6,3.2c0.6,0.7,1.3,1.3,2.2,1.6c0.8,0.5,1.6,0.7,2.5,0.7c0.9,0.1,1.8,0,2.6-0.4
			c0.9-0.2,1.7-0.7,2.4-1.3C259.1,378.6,259.5,378.1,259.9,377.7z"/>
		<path class="st3" d="M252.4,232.3c0.5-0.8,0.8-1.6,0.8-2.5c0-0.4-0.1-0.9-0.1-1.3c-0.2-0.9-0.6-1.7-1.2-2.4
			c-0.4-0.5-1-0.9-1.6-1.2c-0.6-0.3-1.2-0.5-1.9-0.5c-0.7-0.1-1.3,0-1.9,0.3c-0.7,0.2-1.3,0.5-1.8,1c-0.3,0.3-0.6,0.7-0.9,1
			c-0.5,0.8-0.8,1.6-0.8,2.5c0,0.4,0.1,0.9,0.1,1.3c0.2,0.9,0.6,1.7,1.2,2.4c0.4,0.5,1,0.9,1.6,1.2c0.6,0.3,1.2,0.5,1.9,0.5
			c0.7,0.1,1.3,0,1.9-0.3c0.7-0.2,1.3-0.5,1.8-1C251.8,232.9,252.1,232.6,252.4,232.3z"/>
		<path class="st3" d="M213.3,239.3c1.3-1.9,1.6-4.3,1.1-6.5c0-0.2-0.1-0.3-0.1-0.5c0,0.1,0,0.2,0,0.3c0,0,0,0,0,0
			c-0.1-0.9-0.4-1.7-0.8-2.5c-0.7-1.5-1.8-2.6-3.1-3.6c-2.6-1.7-6-1.9-8.8-0.6c-2.9,1.4-4.8,4.3-5,7.5c-0.1,1.6,0.2,3.1,0.9,4.5
			c0.7,1.5,1.8,2.6,3.1,3.6c0.7,0.4,1.5,0.8,2.3,1.1c0.1,0,0.2,0.1,0.2,0.1c0,0,0.1,0,0.1,0c0.7,0.2,1.5,0.3,2.2,0.4
			c0.1,0,0.2,0,0.3,0c1.5,0.1,2.9-0.2,4.2-0.8C211.3,241.5,212.4,240.5,213.3,239.3z"/>
		<path class="st3" d="M229,291.2c0.9-1.3,1.4-2.7,1.6-4.2c0.4-1.5,0.4-2.9,0.1-4.4c-0.3-1.4-0.7-2.8-1.3-4.2c-1-2-2.4-3.6-4.2-4.8
			c-0.9-0.5-1.9-0.9-2.8-1.4c-2-0.6-4-0.8-6.1-0.4c-1.6,0.3-3,0.9-4.3,1.9c-1.4,0.8-2.6,1.9-3.5,3.3c-0.9,1.3-1.5,2.8-1.6,4.3
			c-0.4,1.5-0.5,3-0.1,4.6c0.4,2.1,1.4,4,2.8,5.6c0.3,0.3,0.6,0.6,0.9,0.9c0.8,0.7,1.6,1.4,2.4,2c1.3,0.9,2.7,1.4,4.2,1.6
			c1,0.3,2,0.4,3,0.2c1.5,0,3-0.3,4.4-1.1c0.9-0.6,1.7-1.2,2.6-1.7C227.7,292.7,228.4,292,229,291.2z"/>
		<path class="st3" d="M176.9,280.4c0.7-1,1.1-2,1.2-3.2c0.2-0.7,0.3-1.5,0.1-2.3c0-1.2-0.2-2.3-0.8-3.3c-0.3-0.7-0.5-1.2-1.3-2
			c0,0-1.8-1.5-1.8-1.5c0,0,0,0,0,0c-0.7-0.3-1.4-0.7-2.1-1c-1.1-0.4-2.2-0.5-3.4-0.4c-0.8,0-1.5,0.1-2.2,0.4
			c-1.2,0.3-2.2,0.8-3.1,1.7c-0.3,0.3-0.6,0.6-0.8,0.9c-0.3,0.3-0.6,0.6-0.8,0.9c0,0,0,0.1,0,0.1c0,0,0,0.1,0,0.1
			c-0.3,0.7-0.7,1.4-1,2.1c-0.2,0.7-0.3,1.5-0.4,2.2c-0.1,1.2,0.1,2.3,0.5,3.3c0.3,1.2,0.8,2.2,1.7,3l1.8,1.5
			c1.3,0.8,2.7,1.3,4.3,1.4c0.4,0,0.8,0,1.2-0.1c1.2,0,2.3-0.2,3.3-0.8c0,0,0.1,0,0.1,0c0.8-0.4,1.5-0.9,2.1-1.4L176.9,280.4z"/>
		<path class="st3" d="M175.7,159.2c0.6-1,0.9-2.1,1-3.3c0-0.3,0-0.6,0.1-1c0.1-1.7-0.2-3.2-0.9-4.7c-0.8-1.5-1.9-2.8-3.3-3.8
			c-0.7-0.4-1.5-0.7-2.2-1.1c-1.6-0.5-3.1-0.6-4.8-0.3c-1.3,0.2-2.4,0.7-3.4,1.5c-1.1,0.6-2,1.5-2.7,2.6c-0.9,1.4-1.4,2.9-1.5,4.6
			c-0.1,1.7,0.2,3.2,0.9,4.7c0.2,0.3,0.4,0.6,0.5,0.8c0.5,0.7,0.9,1.4,1.4,2c0.8,1,1.8,1.7,2.9,2.1c0.7,0.4,1.4,0.7,2.2,0.7
			c1.1,0.3,2.3,0.3,3.5,0.1l2.2-0.7c0.7-0.5,1.4-0.9,2-1.4C174.5,161.3,175.2,160.3,175.7,159.2z"/>
		<path class="st3" d="M140.6,183.4c0.4-1.3,0.5-2.7,0.3-4c-0.3-1.4-0.9-2.6-1.8-3.7c0,0,0,0,0-0.1c-0.5-0.5-1.1-0.9-1.6-1.4
			l-1.8-0.9c-0.7-0.1-1.3-0.3-2-0.4c-1-0.1-2,0-3,0.5c-0.7,0.1-1.3,0.4-1.9,0.9c-0.6,0.3-1.2,0.8-1.6,1.4c-0.5,0.5-0.9,1-1.1,1.7
			c-0.5,0.9-0.8,1.9-0.8,2.9l0,0.1c-0.1,1.4,0.2,2.7,0.8,4c0.6,1.3,1.6,2.4,2.8,3.2c1.2,0.8,2.5,1.2,3.8,1.3c1.1,0.1,2.1,0,3-0.5
			c1-0.3,2-0.8,2.7-1.5C139.4,185.9,140.2,184.7,140.6,183.4z"/>
		<path class="st3" d="M121.9,217.6c0.3-0.6,0.6-1.2,0.9-1.8c0.1-0.6,0.2-1.3,0.4-1.9c0.1-1,0-2-0.4-2.9c-0.2-1-0.7-1.9-1.4-2.6
			c-0.5-0.5-1-1.1-1.6-1.4c0,0,0,0-0.1,0c-0.6-0.3-1.1-0.5-1.7-0.8c-1.2-0.4-2.4-0.5-3.6-0.2c-0.7,0.1-1.4,0.3-2,0.7
			c-0.6,0.4-1.1,0.8-1.7,1.1c-0.8,0.7-1.4,1.5-1.8,2.4c-0.4,0.6-0.6,1.2-0.6,1.8c-0.2,0.6-0.2,1.3-0.1,1.9c0,1,0.2,1.9,0.7,2.8
			c0.4,0.6,0.8,1.1,1.1,1.7c0.5,0.4,1,0.9,1.5,1.3c0.8,0.6,1.7,0.9,2.7,1c0.6,0.2,1.3,0.2,1.9,0.1c0.7,0,1.3-0.1,1.9-0.4
			c1-0.2,1.9-0.7,2.6-1.4C121,218.6,121.5,218.1,121.9,217.6z"/>
		<path class="st3" d="M602.9,113c0.8-1.2,1.2-2.5,1.3-3.9l-0.1-2c-0.3-1.4-0.9-2.7-1.9-3.8c-0.7-0.9-1.5-1.5-2.6-1.9
			c-0.9-0.5-1.9-0.8-2.9-0.8c-1.1-0.1-2.1,0-3,0.5c-1,0.3-2,0.8-2.8,1.5c-0.5,0.5-0.9,1.1-1.4,1.6c-0.8,1.2-1.2,2.5-1.3,3.9l0.1,2
			c0.3,1.4,0.9,2.7,1.9,3.8c0.7,0.9,1.5,1.5,2.6,1.9c0.9,0.5,1.9,0.8,2.9,0.8c1.1,0.1,2.1,0,3-0.5c1-0.3,2-0.8,2.8-1.5
			C602,114.1,602.4,113.6,602.9,113z"/>
		<path class="st3" d="M637.5,123.7c0.3-0.5,0.4-1,0.5-1.6c0-0.8-0.1-1.5-0.4-2.2c-0.4-0.7-0.9-1.3-1.5-1.7c-0.4-0.3-0.8-0.7-1.2-1
			c-0.3-0.2-0.6-0.3-1-0.5c-0.5-0.2-1-0.2-1.6-0.2c-0.4,0-0.7,0-1,0.2c-0.5,0.1-1,0.4-1.4,0.8c-0.2,0.3-0.5,0.6-0.7,0.8
			c-0.2,0.3-0.3,0.6-0.5,1c-0.2,0.5-0.2,1-0.2,1.6c0,0.5,0.1,1.1,0.4,1.5c0.3,0.4,0.6,0.9,0.8,1.3c0.4,0.7,0.9,1.3,1.5,1.7
			c0.6,0.4,1.4,0.7,2.1,0.7l1.1-0.1c0.8-0.2,1.5-0.5,2-1C636.9,124.7,637.3,124.2,637.5,123.7z"/>
		<path class="st2" d="M415.1,449.1c0.7-3.2-0.2-5.6-2.7-7.7c-8.5-7-20.7-4.4-30.7-2.5c-9.6,1.8-19.2,3.6-28.8,4.7
			c-9.6,1.1-16.3,1.4-26.8,1.3c-10-0.1-20-0.8-30-2.1c-18.3-2.4-37.5-7.4-56.4-14.9c-19-7.6-37.3-18-54.5-30.3
			c-9.4-6.7-18.6-13.9-27.1-21.8c-4.2-4-8.5-7.9-12.8-11.8c-2.4-2.2-4.9-4.3-7.4-6.3c-2.6-2-5.5-2.9-8.2-4.6c-3.1-2-7.7,0.8-6.8,4.6
			c0.7,2.9,0.6,5.7,1.6,8.5c0.7,2.2,1.8,4.4,2.9,6.5c2.9,5.6,6.6,11.1,10.5,16c6.9,8.8,14.5,17.2,22.8,24.7
			c18.2,16.5,37.8,29.6,60,40.1c40.3,19,84.8,25.8,129.1,22.2c11.3-0.9,22.9-2.2,33.8-5.2C395.4,467.2,412.2,462.9,415.1,449.1z"/>
		<path class="st2" d="M393.6,512.7c3-4,0.5-10.1-4-11.6c-2-0.6-3.9-1.4-6-1.6c-2.3-0.2-4.7,0.2-7.1,0.4c-3.7,0.3-7.3,1.1-10.9,1.7
			c-7.3,1.2-14.5,2.6-21.8,3.5c-7,0.9-14.1,1.5-21.1,2.4c-3.5,0.5-7.1,1-10.5,1.8c-1.8,0.4-3.6,1-5.2,2c-0.8,0.5-2.1,1.9-3,2.1
			c-0.8,0.2-1,1.2-0.3,1.7c0.8,0.5,1.4,2.1,2.1,2.9c1.2,1.4,2.7,2.5,4.4,3.3c3.4,1.7,7.2,3,10.9,4c7.6,2.1,16.4,2.7,24.3,2.6
			c8-0.1,16.6-0.7,24.4-2.5c4.4-1,8.9-2.1,12.9-3.9c2.2-1,4.4-2,6.3-3.5C390.8,516.7,392.2,514.6,393.6,512.7z"/>
	</g>
</g>
</svg>
