<?xml version="1.0" encoding="utf-8"?>
<!-- Generator: Adobe Illustrator 26.0.1, SVG Export Plug-In . SVG Version: 6.00 Build 0)  -->
<svg version="1.1" id="Layer_1" xmlns="http://www.w3.org/2000/svg" xmlns:xlink="http://www.w3.org/1999/xlink" x="0px" y="0px"
	 viewBox="0 0 595.3 595.3" style="enable-background:new 0 0 595.3 595.3;" xml:space="preserve">
<style type="text/css">
	.st0{clip-path:url(#SVGID_00000166661912087292399240000007400318672356873624_);}
	.st1{fill:#FF8103;}
	.st2{fill:#17213A;}
	.st3{fill:#FFFFFF;}
</style>
<g>
	<defs>
		<rect id="SVGID_1_" x="0" y="0" width="595.3" height="595.3"/>
	</defs>
	<clipPath id="SVGID_00000036936849400718318900000016643505576263618212_">
		<use xlink:href="#SVGID_1_"  style="overflow:visible;"/>
	</clipPath>
	<g style="clip-path:url(#SVGID_00000036936849400718318900000016643505576263618212_);">
		<path class="st1" d="M528.4,267.1c-0.6-13-5-24.8-11.9-34.9c-13.7-20.2-35.8-31.4-56.7-37.7c-18.3-5.6-37.4-7.3-56.3-5.3
			c9-12.5,15.7-27.1,19.1-43c5.6-25.8,1.7-53.6-11.9-75.2c-13.2-21-33.5-35.8-56.3-36.3C329.3,34,304.6,49.2,287,69.2
			c-9.5,10.8-17.1,23.3-22.8,37c-7.6-9.5-17.3-16.9-27.3-22.4c-20.8-11.4-47.1-20.2-69.2-9.3c-17.8,8.8-30,28.5-35.6,49.6
			c-6.3,24-3.4,48.6,5.8,71.1c10.1,24.8,26.8,45,44.9,62.3c-22.5,11.2-43.3,26.2-62,44.8c-10.3,10.3-19.9,21.6-28.5,33.9
			c-9,12.7-17.3,26.3-22.1,41.9c-4.5,14.7-4.9,31.4,2,45.2c5.9,12,16.2,19.7,27.1,24.4c25.3,10.7,55.1,5.4,80.1-4.1
			c27.3-10.5,52.1-27.4,76.5-44.8c-7,35.2-5.5,73.5,9.8,105.5c15.2,31.8,43,55.3,74.8,56.4c33.8,1.2,67.8-19.9,91.3-47
			c11.5-13.3,20.9-29.2,26-47.1c4.8-16.9,5.1-35.4,1-52.5c-5.9-24.9-19.7-46-37.2-61.7c13.8-0.1,27.7-1.9,41.2-5.5
			c22.4-6.1,44.6-18.9,56.9-42.4C525.5,293.3,529,280.1,528.4,267.1z"/>
		<path class="st2" d="M443.7,240.1c-11-9-24.6-14.8-38.2-19c-4.9-1.5-9.9-2.8-14.8-4.4c-2.3-0.7-4.6-1.5-6.8-2.4
			c-0.5-0.2-1.1-0.4-1.6-0.6c-0.1-0.1-0.3-0.1-0.4-0.2c-1.2-0.6-2.4-1.1-3.5-1.8c-1.1-0.6-2.2-1.3-3.3-2c-0.4-0.3-0.8-0.5-1.2-0.8
			c0,0,0,0-0.1-0.1c0,0,0,0,0,0c-0.8-0.7-1.6-1.4-2.4-2.2c-0.4-0.4-0.8-0.9-1.3-1.4c0.7,0.8,0.4,0.6-0.1-0.1
			c-3.1-4.8-3.8-8.4-3.4-14c0.4-5,2.8-11.8,4.9-17.2c2.4-6.2,5.2-12.2,7.5-18.4c4.9-13,8.4-27.3,6.9-41.2
			c-1.3-12.6-6.2-24.3-15.1-33.4c-8.2-8.4-20.1-14.5-32.1-13.5c-12.6,1.1-23.4,7.8-31.6,17.2c-8.4,9.7-13.4,21.1-18.5,32.7
			c-2.5,5.8-5.2,11.6-8.4,17c-2.6,4.3-5.8,9.1-10.3,11.5c-2.1,1.1-2.6,1.1-5,1.1c-0.1,0-0.2,0-0.2,0c-0.5-0.1-1-0.2-1.5-0.3
			c-0.6-0.2-1.2-0.4-1.8-0.6c-0.1-0.1-0.4-0.2-0.6-0.3c-3.1-1.4-6-3.3-8.9-5.2c-13.6-13.5-35.9-15.6-52-3.6
			c-21.3,16.1-19.4,44.8-7.4,66c0.5,0.9,1,1.7,1.5,2.6c3.9,10.4,9,20.5,15.6,29.4c3.6,4.8,7.6,9.4,11.1,14.3c2.8,4.1,6.4,9.9,4.3,15
			c-0.5,1.3-0.4,2.5,0.1,3.3c-6.7,23.9-32.6,36-50.1,51.1c-9.6,8.3-18.6,18.8-21.4,31.4c-2.5,11.4,0.1,24.8,9.2,32.7
			c21.3,18.4,51.6-0.2,71.7-10.9c18.5-9.8,45.9-22,64.2-5.1c15.7,14.4,17,38.8,25.1,57.5c4.4,10.1,10.6,19.4,19.6,26
			c10.2,7.4,23.5,8.8,35.3,4.9c12-3.9,23.6-12.2,29.7-23.5c6.9-12.7,5.5-27.5,0.3-40.6c-4.9-12.5-12.9-23.7-17.1-36.6
			c-1.7-5.2-2.8-10.9-1.9-15.8c1.1-5.5,3.6-9,7.5-12.8c8.1-7.7,19.7-13.5,29.2-20.4c5.9-4.3,11.7-8.8,17.4-13.5
			c5.2-4.3,11.1-9.1,13.5-16.2C462,262.3,454,248.6,443.7,240.1z M437,268.6c-0.1-0.2-0.7,2.3-0.6,1.8c-0.1,0.1-1.1,2-1.6,2.8
			c-0.8,1.1-3.6,3.9-5.4,5.3c-4.9,4.1-9.9,7.9-15.1,11.6c-9.8,7-20.6,12.7-29.6,20.8c-9.4,8.5-15.2,20.3-14.7,33.1
			c0.5,13.2,6.3,25.6,12.4,37c5.5,10.2,12.2,21.5,11.3,33.4c-0.7,9.6-7.8,17.1-16.3,22c-8.6,4.9-18.1,5.4-26.3,0.2
			c-7.4-4.7-12.3-13.8-15.8-21.7c-4-9.3-6-19.3-9.2-29c-3.3-10.2-7.7-20.1-15-28.1c-8-8.8-18.9-13.3-30.5-14.5
			c-25.2-2.5-47.3,11.9-68.7,23c-9.4,4.9-20.6,10.6-31.6,9.2c-9.9-1.3-14.7-10.4-14-19.7c0.9-11.1,9.1-20.5,16.9-27.8
			c9-8.4,19.2-15.2,28.4-23.2c13-11.4,24.2-28.7,24.2-47c0-21.2-18.7-36-26.1-55c-4.1-10.7-7.8-23-5.8-34.6
			c1.6-9.2,7.5-18.2,16.9-20.5c3.7-0.9,7.6,0,10.7,1.6c4.4,2.3,8.4,5.2,12.6,7.9c9,5.9,19.7,10.2,30.4,6.1
			c11.9-4.5,19.5-16.2,25-27.1c5.3-10.5,9.1-21.9,15.3-31.9c2.7-4.3,5.7-8.2,9.7-11.6c3.4-2.9,7.3-5,11.6-5.9c1.4-0.3,3.6-0.4,6-0.3
			c0.6,0,0.7,0,0.8,0c0,0,0.2,0.1,0.7,0.2c1.3,0.3,2.6,0.7,3.9,1.1c1.9,0.7,0.9,0.4,0.5,0.2c0.5,0.2,0.9,0.5,1.4,0.7
			c1.1,0.6,2.1,1.2,3.1,1.9c1.1,0.7,3.2,2.5,4.8,4.3c2.4,2.6,5.6,7.6,6.7,10.6c1.9,5,2.6,10.1,2.5,15.4c-0.1,12.1-4.1,24.2-9.1,35.1
			c-5.4,12-11.3,24.1-11.8,37.5c-0.4,11.9,4.7,23.6,13.9,31.2c8.5,7,18.7,10.8,29.1,14c10.8,3.4,21,6.5,30.9,11.8
			c5.6,3,9.3,5.2,13.2,9.4c1.7,1.8,2,2.2,3.3,4.7c0.1,0.1,0.1,0.2,0.1,0.2c0,0.1,0,0.1,0.1,0.2c0.2,0.5,0.3,1,0.5,1.5
			c0,0.1,0.1,0.3,0.1,0.5C437,267.7,437,268.2,437,268.6z"/>
		<path class="st3" d="M385.4,284.4c-0.7-10.2-10.4-17.3-18.9-21.4c-9-4.3-18.8-8.1-26.4-14.8c-8.3-7.3-11.4-17.5-11.1-28.3
			c0.3-11.7,5.6-22.9,3.6-34.7c-1.7-10.1-9.2-18.7-19.9-18.9c-10.9-0.2-19.6,7.5-24.5,16.6c-1.3,2.4-2.4,4.9-3.3,7.4
			c-0.4,1-0.6,2.1-0.7,3.2c-2.8,2.2-6.1,3.9-9.6,4.3c-5.6,0.6-11-1.6-16.7-0.2c-4.9,1.2-8.6,4.7-10.6,9.2c-4.3,10,0.3,19.8,6.4,27.9
			c3.2,4.3,7,8.5,8.7,13.7c1.7,5.3,0.3,8.9-3.5,12.7c-10.7,10.8-45.1,44.2-17.7,55.4c9.4,3.9,18.9,0.4,27.7-3.3
			c8.6-3.5,18-7.4,27-3.1c19.6,9.3,23.3,35,35.8,50.8c3.3,4.2,7.7,8.9,13.5,9.1c5.6,0.2,9.7-4,10.7-9.3c2.2-11.2-3.6-22-4.1-33.1
			c-0.5-10.5,6.1-18.1,15.1-22.8C375.4,300.2,386.2,296,385.4,284.4z M362,295.3c-8,4.1-15.1,10.6-18.5,19
			c-4.1,9.9-1.5,20.1,0.7,30.1c0.5,2.4,1,4.8,1.3,7.2c0.2,2.3-0.2,4.5,0,6.7c0,0.2,0,0.4,0,0.6c-0.7-0.2-1.4-0.9-1.9-1.4
			c-2-1.8-3.6-4.2-5.1-6.4c-10.8-16.2-15.6-36.1-32.3-47.7c-7.5-5.2-16.4-7.1-25.4-5.3c-8.9,1.7-16.8,6.6-25.7,8.5
			c-3.3,0.7-7.2,0.7-10.2-1.1c-4.4-2.7,0.4-8.4,2.3-11.5c5.3-8.7,11.9-16,19.3-23c4.1-3.9,7.9-8.5,8.9-14.3
			c1.1-6.1-0.7-12.1-3.7-17.4c-4.6-7.9-16.1-15.6-15.1-25.8c0.5-5,3.6-6.5,8.3-6.2c5.7,0.4,10.9,1.4,16.4-0.5
			c11.9-4,12.7-14.9,19.8-23.4c7.4-8.9,21.6-7.5,22.5,6.4c0.7,10.6-3.9,20.9-4.1,31.4c-0.2,10.1,2.3,20.2,8.4,28.3
			c5.8,7.6,13.9,12.7,22.3,16.9c7.6,3.9,17.2,6.8,22.6,13.7C379.3,288.6,368.1,292.1,362,295.3z"/>
		<path class="st2" d="M323.8,279c-1.9-4.7-4.7-12.1-9.2-16c-0.6-0.8-1.3-1.6-2-2.4c0.1-0.1,0.1-0.2,0.2-0.4c0.7-2,1-4.1,0.9-6.2
			c0-3.5-0.6-7.2-1.6-10.6c-1.3-4.5-5.8-8.3-10.6-8.1c-2,0.1-3.8,0.6-5.6,1.5c-2.1,1.1-4.7,4.2-5.1,6.6c-0.2,1.6-0.5,3.2-0.4,4.8
			c0,0.4,0,0.9,0,1.3c-0.3,1.5-0.8,2.9-1.3,4.3c-0.3,0.3-0.5,1-0.7,1.4c-0.6,1-1.2,2-1.8,3c-0.3,0.4-0.5,0.8-0.8,1.1c0,0,0,0,0,0
			c-0.7,0.8-1.4,1.6-2.2,2.4c-0.7,0.8-1.6,1.5-2.3,2.2c-0.5,0.3-0.9,0.7-1.4,1c-3.8,2.5-5.5,7.1-3.7,11.4c1.6,3.8,6.5,7,10.8,5.3
			c3.2-1.3,6.5-2.6,9.7-3.9c1.4-0.6,2.7-1.1,4.1-1.7c0.4,0.7,0.9,1.3,1.3,2c1.6,2.7,3,5.4,4.2,8.3c0.8,2,3.7,3.9,5.7,4.4
			c2.1,0.5,4.2,0.4,6.2-0.5C322.2,288.6,325.6,283.4,323.8,279z"/>
		<path class="st3" d="M100.9,372.9c0-0.1-0.2-0.5-0.2-0.5c0.1,0.4,0.1,0.5,0,0.1c0-0.1,0-0.1,0-0.2c-0.1-0.4-0.1-0.7-0.2-1.1
			c-0.4-1.2-1.7-1.8-2.9-1.2c-0.3,0.1-0.5,0.3-0.7,0.4c-0.1,0.1-0.2,0.2-0.3,0.3c-0.1,0-0.4,0.2-0.5,0.2c-0.4,0.2-0.7,0.4-1,0.8
			c-0.6,0.7-1.1,1.4-1.7,2.2c-0.3,0.4-0.7,0.8-1,1.3c-0.2,0.5-0.4,1-0.6,1.5c-0.1,0.4-0.3,0.9-0.4,1.3c-0.4,1.4-0.4,3,0.1,4.3
			c0.7,2,2.8,2.9,4.7,1.9c1.2-0.6,2.3-1.6,3-2.8c0.2-0.4,0.4-0.9,0.7-1.4c0.2-0.5,0.5-1,0.6-1.4c0.2-0.5,0.2-1.1,0.3-1.7
			c0.1-0.9,0.2-1.8,0.3-2.6C101.1,373.8,101.1,373.4,100.9,372.9z"/>
		<path class="st3" d="M90.5,406.6c0.1-0.7,0.1-1.5-0.1-2.2c-0.4-1.6-2.2-3.2-4-3c-0.9,0.1-1.5,0.2-2.3,0.6
			c-0.6,0.1-1.1,0.3-1.9,0.7c-0.8,0.4-1.5,1-2.2,1.6c-0.7,0.6-1.4,1.2-2.1,1.8c-1,1.1-1.9,2.3-2.7,3.6c-0.5,0.8-0.8,1.7-1.1,2.6
			c-0.6,2.6,0.1,5.1,2.2,6.8c2,1.6,4.9,1.7,7.1,0.4c0.8-0.5,1.6-1,2.2-1.7c0.9-1.1,1.9-2.2,2.6-3.5c0.7-1.2,1.1-2.6,1.7-3.9
			C90.5,409.1,90.6,407.8,90.5,406.6z"/>
		<path class="st3" d="M124.8,395.8c-0.3-1-0.9-1.8-1.7-2.4c-0.3-0.3-0.6-0.5-1-0.6c-0.6-0.3-1.2-0.4-1.8-0.4c-0.6,0-1.4,0.1-2,0.3
			c-0.8,0.2-1.4,0.6-2,1c-0.6,0.4-1.2,0.7-1.8,1c-1.1,0.6-1.8,1.5-2.6,2.5c-0.5,0.6-1.1,1.2-1.6,1.9c-0.8,1.3-1.1,2.7-0.9,4.1l0.1,1
			c0.1,0.6,0.4,1.2,0.9,1.6c0.6,0.7,1.4,1.4,2.3,1.7c0.2,0.1,0.5,0.2,0.7,0.3c0.4,0.1,1.2,0.2,1.6,0.2c0.5-0.1,1-0.1,1.5-0.2
			c0,0,0.1,0,0.1,0c0.1,0,0.2-0.1,0.2-0.1c0.8-0.3,1.5-0.6,2.2-1.1c1.4-0.9,2.9-1.9,3.8-3.4c0.4-0.6,0.7-1.2,1-1.9
			c0.1-0.2,0.2-0.3,0.2-0.5c0-0.1,0.1-0.2,0.1-0.2c0.1-0.2,0.2-0.5,0.3-0.7c0.2-0.4,0.4-0.9,0.4-1.4c0.1-0.4,0.1-0.7,0.1-1.1
			C125,396.9,125,396.3,124.8,395.8z"/>
		<path class="st3" d="M115.7,426.7c-0.2-1.5-0.8-2.6-1.9-3.5c-0.9-1.1-2.1-1.9-3.6-2.3c-0.4-0.1-0.7-0.2-1.1-0.2
			c-0.2,0-0.3-0.1-0.5-0.1c-1.3-0.3-2.6-0.2-3.9,0c-0.2,0-0.4,0-0.5,0.1c-0.4,0-0.9,0.1-1.3,0.1c-1.2,0.2-1.5,0.2-2.8,0.9
			c-0.7,0.4-1.4,0.8-2,1.3c-0.7,0.4-1.3,1-1.6,1.9c-0.4,0.9-0.4,1.8-0.2,2.6c0.1,1.2,0.6,2.3,1.4,3.2c0.8,1,1.3,1.9,2.5,2.5
			c0.4,0.2,0.8,0.3,1.2,0.5c0.6,0.3,1.2,0.5,1.9,0.8c0.4,0.1,0.7,0.2,1.1,0.3c1.6,0.5,3.1,0.4,4.7,0c0.4-0.1,0.8-0.2,1.2-0.3
			c1-0.3,1.7-0.7,2.5-1.3c0.8-0.5,1.3-1.1,1.8-1.9c0.1-0.1,0.1-0.3,0.2-0.4C115.6,429.5,115.9,428.2,115.7,426.7z"/>
		<path class="st3" d="M142.3,433.9c-0.4-1.4-1.4-2.3-2.7-2.7c-0.5-0.2-1-0.3-1.6-0.2c-0.2,0-0.5,0-0.7,0c-0.2,0-0.4,0-0.6,0
			c-1,0-1.7,0.3-2.6,0.7c0.3-0.1,0.7-0.3,1-0.4c-0.5,0.2-1.1,0.4-1.6,0.6c-0.5,0.2-1,0.6-1.4,1c0,0,0,0,0,0
			c-0.2,0.1-0.3,0.2-0.4,0.4c0,0-0.1,0.1-0.2,0.3c-0.8,0.1-1.3,1.3-0.6,1.9c0,0,0,0,0,0c0,0.1,0,0.2,0.1,0.3c0-0.1,0-0.1,0-0.2
			c0,0,0,0,0,0c0.1,0.9,0.6,1.6,1.2,2.4c0.7,0.8,1.7,1.2,2.7,1.5c0.6,0.2,1.1,0.3,1.7,0.3c0.6,0,1.2-0.1,1.8-0.3
			c1.1-0.3,2.2-0.8,3-1.7c0.5-0.5,0.8-1.1,1-1.7C142.5,435.3,142.5,434.6,142.3,433.9z"/>
		<path class="st3" d="M317.6,517.3c-0.3-1-0.5-2.1-1.1-3c-0.5-0.9-1.3-1.7-2-2.4c-0.2-0.2-0.3-0.4-0.5-0.5
			c-0.9-0.8-1.9-1.3-3.1-1.5c-0.2-0.1-0.5-0.2-0.7-0.3c-1.6-0.4-3.1,0-4.4,1.1c-0.6,0.6-0.9,1.3-1.2,2c-0.2,0.4-0.4,0.8-0.5,1.3
			c-0.1,0.5-0.1,1-0.2,1.6c0,0.1,0,0.1,0,0.2c0.1,0.7,0.1,1.3,0.2,2c0.1,0.6,0.2,1.2,0.2,1.8c0.2,0.6,0.4,1.1,0.7,1.7
			c0.1,0.1,0.1,0.3,0.2,0.4c0,0.1,0.1,0.1,0.1,0.2c0.2,0.5,0.4,1,0.7,1.5c0.1,0.2,0.3,0.4,0.4,0.6c0.7,1,1.4,1.9,2.4,2.5
			c0.4,0.2,0.8,0.4,1.1,0.5c1.5,0.6,3.3,0.7,4.7-0.2c0.9-0.6,1.4-1.2,2.1-2.1c0.9-1.2,1.1-2.7,1.1-4.1
			C318,519.4,317.8,518.3,317.6,517.3z"/>
		<path class="st3" d="M339.8,538.5c-0.1-0.8-0.2-1.5-0.3-2.3c0-0.3-0.1-0.6-0.2-0.8c0-0.1-0.1-0.3-0.1-0.4
			c-0.2-0.8-0.6-1.6-1.1-2.2c-0.2-0.3-0.4-0.5-0.6-0.8c-0.2-0.2-0.4-0.4-0.6-0.6c-0.1-0.1-0.2-0.2-0.3-0.3c-0.4-0.4-1-0.8-1.5-1.1
			c-0.9-0.4-1.7-0.8-2.6-1.1c-1.7-0.6-3.8,0.1-5,1.3c-1.4,1.4-1.7,3.2-1.3,5c0,0.2,0.1,0.4,0.1,0.5c0.1,1.1,0.3,1.4,0.8,2.8
			c-0.2-0.5-0.4-1-0.6-1.5c0.2,0.4,0.3,0.7,0.4,1.1c0.2,0.5,0.5,1.2,0.7,1.7c0.2,0.4,0.5,0.8,0.9,1.1c0.1,0.1,0.2,0.2,0.2,0.3
			c0.1,0.1,0.2,0.2,0.2,0.4c0.6,0.9,1.3,1.6,2.2,2.1c1.3,1,3,1.5,4.6,1.1c0.9-0.2,1.6-0.8,2.2-1.4c0.6-0.6,1.1-1.4,1.3-2.2
			c0.2-0.3,0.3-0.6,0.5-1C339.8,539.6,339.8,539.1,339.8,538.5z"/>
		<g>
			<path class="st3" d="M354.6,521.4c-0.1,0.1-0.2,0.1-0.3,0.2c0,0.1-0.1,0.1-0.1,0.2C354.3,521.6,354.5,521.5,354.6,521.4z"/>
			<path class="st3" d="M354.3,521.6C354.3,521.6,354.3,521.6,354.3,521.6c0,0-0.1,0.1-0.1,0.1C354.2,521.6,354.3,521.6,354.3,521.6
				z"/>
			<path class="st3" d="M356.2,514.7c-0.2-1.1-0.8-2.1-1.6-2.8c-0.4-0.4-0.8-0.7-1.3-1c-0.5-0.2-0.9-0.4-1.4-0.6c0,0,0,0-0.1,0
				c-1.1-0.3-2.2-0.3-3.3-0.1c-1.8,0.4-3.4,2-3.8,3.8c0,0,0,0,0,0.1c0,0,0,0,0,0v0l0,0c-0.1,0.1-0.1,0.3-0.1,0.4
				c-0.3,1-0.3,2.3,0,3.3c0,0,0,0.1,0,0.1c0.1,0.8,0.3,1.5,0.7,2.2c0.3,0.4,0.6,0.8,0.9,1.2l0,0c0,0,0.8,0.7,1.2,0.9
				c0,0,0.1,0,0.1,0.1c0.1,0.1,0.2,0.1,0.3,0.1c0.4,0.2,0.9,0.4,1.3,0.6c0,0,0.1,0,0.1,0c0.4,0.1,0.8,0.1,1.3,0.2
				c0.7,0,1.3-0.1,1.8-0.4c0.4-0.1,0.8-0.3,1.1-0.6c0.1-0.1,0.2-0.2,0.3-0.3c0,0,0.1-0.1,0.1-0.1c0,0,0.1-0.1,0.1-0.1
				c-0.1,0.1-0.1,0.1-0.2,0.2c0.3-0.3,0.7-0.6,0.9-1c-0.2,0.2-0.4,0.5-0.5,0.7c0.1-0.1,0.3-0.2,0.4-0.3c0.6-0.5,1-1.2,1.2-1.9
				c0.4-0.7,0.5-1.5,0.5-2.3c0,0,0-0.1,0-0.1c0-0.1,0-0.1,0-0.2C356.4,516.1,356.3,515.3,356.2,514.7z"/>
		</g>
		<path class="st3" d="M370.4,537.5c-0.2-0.6-0.5-1.3-0.8-1.9c-0.6-1.1-1.4-2.2-2.6-2.8c-0.7-0.3-1.4-0.7-2.2-0.9
			c-2.5-0.6-5.2,1.2-5.1,3.9c0,0.3,0,0.6-0.1,0.9c-0.1,0.7-0.1,0.5,0,1.3c0.1,0.4,0.1,0.6,0.1,0.9c0.1,0.3,0.1,0.5,0.2,0.8
			c0,0.4,0.1,0.8,0.3,1.1c0.1,0.5,0.4,0.8,0.7,1.2c0.1,0.2,0.3,0.4,0.5,0.6c0.1,0.1,0.1,0.1,0.2,0.2c0.2,0.2,0.3,0.3,0.5,0.5
			c0.8,1,1.9,1.7,3.3,1.7c0.8,0,1.5-0.2,2.1-0.6c0.6-0.4,1.1-0.9,1.5-1.5c0.3-0.3,0.5-0.7,0.7-1.1c0.2-0.5,0.5-1.1,0.6-1.5
			C370.7,539.5,370.7,538.5,370.4,537.5z"/>
		<path class="st3" d="M379.2,503.7c-0.2-0.7-0.3-1.4-0.7-2c-0.1-0.2-0.2-0.4-0.3-0.6c-0.3-0.5-0.7-0.9-1.2-1.2l-0.3-0.2
			c-0.4-0.2-0.8-0.4-1.3-0.4c-0.5,0-0.9,0.1-1.3,0.4c-0.4,0.2-0.7,0.5-0.9,0.9c-0.1,0.2-0.2,0.4-0.3,0.6l0,0c0,0,0,0,0,0
			c0,0,0,0,0,0c0,0.1,0,0.2-0.1,0.3c0,0,0,0.1,0,0.1c0,0,0,0,0,0.1c-0.1,0.4-0.1,0.8-0.1,1.2c0,0.2,0,0.3,0.1,0.5c0,0,0,0,0,0
			c-0.1,0.4,0.1,0.8,0.4,1c0.1,0.2,0.2,0.3,0.3,0.5c0.1,0.1,0.1,0.2,0.2,0.3c0.1,0.2,0.3,0.4,0.4,0.6c0.2,0.3,0.4,0.6,0.7,0.8
			c0.3,0.2,0.6,0.4,1,0.5c0.2,0,0.5,0.1,0.7,0.1c0.4,0,0.7-0.1,1.1-0.2c0.2-0.1,0.4-0.2,0.6-0.4c0.3-0.2,0.5-0.5,0.7-0.8
			C379.3,505.2,379.4,504.4,379.2,503.7z"/>
		<path class="st3" d="M396,519.8c-0.1-0.4-0.3-0.8-0.6-1.1c-0.1-0.1-0.2-0.2-0.2-0.3c-0.2-0.2-0.4-0.5-0.5-0.7l-0.4-0.6
			c-0.2-0.1-0.4-0.3-0.6-0.4c-0.2-0.1-0.5-0.2-0.7-0.3c-0.4-0.1-0.8-0.1-1.1-0.1c-0.3,0-0.5,0.1-0.7,0.2c-0.2,0.1-0.5,0.2-0.6,0.4
			c-0.5,0.4-0.9,0.9-1,1.5c-0.1,0.3-0.1,0.5-0.2,0.8c-0.1,0.5-0.3,1.1-0.3,1.7c0,0.3,0.1,0.6,0.1,1c0.1,0.3,0.2,0.6,0.4,0.9
			c0,0.1,0.1,0.2,0.1,0.2c0.1,0.1,0.1,0.2,0.2,0.3c0.2,0.5,0.5,1,0.9,1.3c0.4,0.4,0.9,0.7,1.4,0.8c0.4,0.1,0.8,0.2,1.3,0.1
			c0.4,0,0.8-0.1,1.2-0.4c0.5-0.3,0.9-0.7,1.1-1.1c0.1-0.1,0.1-0.3,0.2-0.4c0.1-0.3,0.2-0.5,0.2-0.8c0-0.2,0.1-0.4,0.1-0.6
			c0-0.1,0-0.3,0-0.4C396.1,521,396.2,520.4,396,519.8z"/>
		<path class="st3" d="M471.1,222.3c-0.5-0.9-1.2-1.5-2.1-2.1c-0.5-0.2-1-0.4-1.5-0.6c-0.3-0.1-0.6-0.3-0.9-0.4
			c-0.6-0.1-1.1-0.1-1.7-0.2c-0.2,0-0.4,0-0.6,0c-0.3,0-0.7,0-1,0.1c-0.8,0.1-1.9,0.1-2.5,0.3c-1.5,0.5-2.7,1.4-3.8,2.6
			c-0.7,0.8-1.2,1.5-1.5,2.6c-0.1,0.4-0.2,1.3-0.2,1.4c0.1,0.4,0.1,0.8,0.2,1.2c0.2,0.8,0.6,1.4,1.2,2c0.7,0.8,1.6,1.2,2.5,1.7
			c0.5,0.3,1.1,0.5,1.6,0.7c0.6,0.1,1.1,0.1,1.7,0.2c0.2,0,0.5-0.1,0.8-0.1c0.9-0.1,1.9-0.2,2.8-0.3c-0.6,0.1-1.1,0.1-1.7,0.2
			c0.2,0,0.4,0,0.6-0.1c0.6-0.1,1.1-0.1,1.7-0.2c0.5-0.2,1.1-0.4,1.6-0.7c0.3-0.1,0.5-0.3,0.8-0.4c1.8-0.9,2.8-3,2.8-4.9
			C471.8,224.2,471.6,223.2,471.1,222.3z"/>
		<path class="st3" d="M490.6,247.2c0,0,0.1,0.1,0.1,0.1c-0.3-1.5-1.4-2.4-2.7-3c-0.3-0.1-0.6-0.2-0.9-0.3c-0.6-0.2-1.3-0.3-1.9-0.5
			c-0.8-0.3-1.9-0.3-2.9-0.3c-0.8,0-1.5,0.2-2.3,0.3c-0.9,0.1-1.7,0.1-2.5,0.5c0,0-0.1,0-0.1,0c-1.1-0.1-1.7,1.3-1.2,2.1
			c0,0,0,0,0,0c0.2,1.1,0.7,1.9,1.5,2.8c0.7,0.8,1.5,1.8,2.4,2.3c0.6,0.3,1.4,0.6,2.1,0.9c0.7,0.3,1.5,0.3,2.3,0.3
			c1.2-0.1,2.4-0.1,3.5-0.5c1.2-0.4,2.5-1.3,2.7-2.7c0,0-0.1,0.1-0.1,0.1C490.8,248.5,490.8,247.8,490.6,247.2z"/>
		<path class="st3" d="M500.5,229.1c-0.4-0.7-1.2-1.3-1.9-1.5c-0.7-0.2-1.3-0.4-2-0.5c-0.5-0.1-1-0.1-1.4,0.1c-0.1,0-0.1,0-0.2,0.1
			c-0.1,0-0.3,0.1-0.4,0.1c-0.3,0.1-0.5,0.2-0.8,0.3c-0.9,0.3-1.8,1-2.1,2c-0.3,0.6-0.3,1.5,0,2.1c0.3,1,1.2,1.7,2.1,2
			c0.3,0.1,0.5,0.2,0.8,0.3c0.1,0,0.3,0.1,0.4,0.1c0.1,0,0.1,0,0.2,0.1c0.5,0.2,1,0.2,1.4,0.1c0.7-0.1,1.3-0.3,2-0.5
			c0.3-0.1,0.5-0.2,0.8-0.3c0.4-0.2,0.7-0.5,0.9-0.8c0.4-0.5,0.7-1.2,0.7-1.9C501,230.2,500.8,229.6,500.5,229.1z"/>
		<path class="st3" d="M505.1,266.1c-0.1-0.1-0.2-0.2-0.3-0.3c-0.6-0.6-1.3-1-2.1-1.2c-0.1,0-0.2,0-0.3-0.1c0,0,0,0,0.1,0
			c-0.3,0-0.6-0.1-1-0.2c-0.6-0.2-1-0.3-1.7-0.3c-0.6,0-1.1,0.1-1.7,0.2c-0.5,0.1-0.7,0.1-1.5,0.5c0,0,0,0,0,0
			c-1.2,0.4-2.1,1.2-2.6,2.4c-0.5,1.1-0.5,2.6,0.2,3.6c0.4,0.6,0.8,1.2,1.3,1.7c0.7,0.7,1.6,1.1,2.5,1.5c0.1,0,0.2,0.1,0.3,0.1
			c0.9,0.3,1.9,0.2,2.8,0c0.4-0.1,0.9-0.2,1.3-0.3c1.4-0.4,2.6-1.3,3.3-2.7c0.4-0.9,0.6-1.7,0.5-2.6
			C506.2,267.6,505.8,266.7,505.1,266.1z"/>
		<path class="st3" d="M490,296.3c-0.2-0.7-0.7-1.5-1.4-1.8c-0.4-0.2-0.8-0.3-1.3-0.4c-0.2,0-0.4-0.1-0.6-0.1
			c-0.8-0.2-1.6-0.2-2.3-0.3c-0.8,0-1.6,0.2-2.4,0.4c-1.3,0.3-2.3,1.2-2.9,2.3c-0.3,0.3-0.6,0.6-0.6,1c-0.1,0.6,0.1,0.9,0.4,1.4
			c0.4,1.4,1.7,2.7,3.1,2.9c1.2,0.2,2.2,0.4,3.4,0c0.2-0.1,0.5-0.1,0.7-0.2c0.4-0.2,0.8-0.3,1.2-0.5c0.3-0.2,0.6-0.5,1-0.7
			c0.5-0.4,1.1-0.9,1.4-1.5C490.1,298,490.3,297.1,490,296.3z"/>
		<path class="st3" d="M501,313.8c-0.1-0.4-0.3-0.7-0.5-1c-0.4-0.5-0.9-0.9-1.5-1c-0.2,0-0.4-0.1-0.6-0.2c-0.8-0.3-1.6-0.1-2.4,0.1
			c-0.6,0.1-0.9,0.1-1.6,0.5c0,0,0,0,0,0c0,0-0.1,0-0.1,0c-0.6,0.2-1,0.4-1.4,0.8c-0.6,0.1-1,0.7-1.3,1.2c-0.3,0.6-0.2,1.3,0.1,1.9
			c0,0.1,0.1,0.1,0.2,0.2c0.2,0.8,0.8,1.5,1.6,2c0.3,0.2,0.8,0.4,1.2,0.5c0.9,0.3,1.9,0.4,2.9,0.1c1.2-0.4,2.3-0.9,2.9-2
			c0.4-0.7,0.5-1.5,0.6-2.3C501,314.3,501,314.1,501,313.8z"/>
		<path class="st3" d="M513.3,288.1c0-0.1-0.1-0.1-0.1-0.2c-0.2-0.8-1.1-1.6-1.9-1.7c-0.6-0.1-1.2-0.2-1.7-0.2c-0.2,0-0.3,0-0.5,0
			c-0.1,0-0.2,0-0.3,0c-0.5,0-0.9,0.1-1.3,0.3c-0.6,0.3-1.1,0.7-1.7,1.1c-0.1,0.1-0.2,0.2-0.4,0.3c-0.4,0.4-0.6,0.9-0.7,1.4
			c0,0.1-0.1,0.2-0.1,0.3c-0.1,0.3-0.1,0.5-0.1,0.7c0,0.1-0.1,0.2-0.1,0.2c-0.2,0.4,0,1,0.3,1.3c0.3,0.3,0.8,0.4,1.3,0.3
			c0.1,0,0.1,0,0.2,0.1c0.4,0.2,0.8,0.3,1.2,0.3c0.2,0,0.3,0,0.5-0.1c0.2,0,0.5,0,0.7-0.1c0.5,0,1-0.1,1.4-0.3c0,0,0.1,0,0.1,0
			c0.4-0.2,0.8-0.3,1.2-0.4c0.7-0.2,1.4-0.7,1.7-1.4c0,0,0,0,0,0C513.6,289.7,513.7,288.7,513.3,288.1z"/>
		<path class="st3" d="M173,126.5c0-0.1-0.1-0.2-0.1-0.3l-0.2-0.9c-0.2-0.7-0.5-1.4-0.8-2.1c-0.1-0.1-0.1-0.2-0.2-0.4
			c-0.3-0.5-0.7-1.1-1.1-1.5c-0.5-0.5-1.1-0.9-1.7-1.3l-0.5-0.4c-0.1-0.1-0.2-0.1-0.3-0.2c-0.9-0.4-1.7-0.7-2.6-0.7
			c-0.1,0-0.1,0-0.2,0c-0.4,0.1-0.8,0.1-1.3,0.2c-0.8,0.2-1.5,0.6-2.1,1.2c0,0-0.1,0.1-0.1,0.1c-0.3,0.4-0.6,0.7-0.8,1.1
			c-0.2,0.4-0.3,0.8-0.5,1.2c-0.2,0.6-0.2,1.3-0.3,2c0,0.2,0,0.4,0,0.7c0,0.5,0,0.9,0.1,1.5c0.1,0.6,0.1,0.9,0.3,1.4
			c0.3,0.9,0.5,1.3,1,2c0.1,0.2,0.3,0.5,0.4,0.7c0.1,0.1,0.1,0.2,0.2,0.3c0.6,0.9,1.3,1.6,2.2,2.2c0.9,0.5,1.9,0.8,3,0.8
			c0.8,0,1.6-0.1,2.3-0.5c0.7-0.2,1.4-0.6,1.9-1.2c0.7-0.7,1.2-1.6,1.5-2.6C173.2,128.6,173.3,127.6,173,126.5z"/>
		<path class="st3" d="M172,90.1c0-0.1,0-0.1,0-0.2c-0.1-0.4-0.3-0.9-0.5-1.3c-0.2-0.5-0.7-1-1-1.4c-0.1-0.1-0.1-0.2-0.2-0.3
			c-0.3-0.2-0.6-0.4-0.9-0.7l-1-0.4c0,0,0,0,0,0c-0.4-0.1-0.7-0.1-1.1-0.2c0,0-0.1,0-0.1,0c-0.3,0-0.5,0.1-0.8,0.1
			c-0.3,0-0.5,0.1-0.8,0.1c-0.6,0.2-1.2,0.5-1.6,0.9c-0.4,0.3-0.6,0.7-0.8,1.2c-0.2,0.4-0.3,0.9-0.3,1.4c0,0.5,0.1,0.9,0.3,1.3
			c0-0.1-0.1-0.2-0.1-0.3c0.1,0.2,0.1,0.4,0.1,0.5c0,0,0,0,0,0.1l0.4,1c0.2,0.3,0.4,0.5,0.6,0.8c0,0.1,0.1,0.1,0.1,0.2
			c0.2,0.4,0.4,0.7,0.7,1.1c0.2,0.3,0.5,0.5,0.9,0.7c0.5,0.3,1,0.5,1.5,0.5c0.6,0.1,1.1,0.1,1.7-0.1c0.3-0.1,0.7-0.3,1-0.4
			c0.6-0.4,1.1-0.9,1.5-1.5c0.1-0.1,0.4-0.9,0.4-1c0.1-0.4,0.1-0.7,0.1-1.1C172.1,90.9,172,90.5,172,90.1z"/>
		<path class="st3" d="M192.4,110.1c-0.1-1.1-0.2-1.5-0.7-2.6c-0.1-0.2-0.2-0.4-0.3-0.6c-0.5-0.9-1.2-1.7-1.9-2.5
			c-0.7-0.7-1.6-1.3-2.6-1.5c-0.3,0-0.6-0.1-0.8-0.3c-0.3-0.1-0.6-0.2-0.8-0.3c-0.5-0.2-0.9-0.2-1.4-0.2c-0.1,0-0.1,0-0.2,0
			c-1.2-0.2-2.1,0.7-1.9,1.9c0,0,0,0,0,0c-0.1,0.8,0.1,1.6,0.2,2.4c-0.1,0.6-0.1,1.3,0.1,1.9c0.2,0.6,0.6,1.3,0.9,1.9
			c0.5,1,1.1,2,1.8,2.8c0.2,0.2,0.5,0.5,0.8,0.7c0.5,0.4,0.9,0.9,1.4,1.2c1.8,1.1,4.2,0.4,5.2-1.4c0.5-0.8,0.5-1.7,0.5-2.6
			C192.5,110.8,192.4,110.5,192.4,110.1z"/>
		<path class="st3" d="M196.6,87.6c-0.2-0.5-0.3-0.9-0.6-1.3c-0.3-0.4-0.6-0.7-0.8-1.1c-0.2-0.2-0.4-0.5-0.6-0.6
			c-0.6-0.5-1.2-1-2-1.2c-0.4-0.1-0.9-0.1-1.3-0.2c-0.5,0-1,0.1-1.5,0.2c-0.3,0-0.5,0.1-0.8,0.2c-0.3,0.1-0.6,0.2-0.9,0.4
			c-0.2,0.2-0.5,0.4-0.7,0.6c-0.2,0.2-0.4,0.5-0.6,0.7c-0.3,0.4-0.4,0.9-0.4,1.4c-0.1,0.3-0.1,0.7,0,1c0,0.3,0.1,0.6,0.3,0.9
			c0.1,0.3,0.2,0.6,0.5,0.8c0.3,0.4,0.6,0.7,1,0.9c-0.2-0.2-0.5-0.4-0.7-0.5c0.2,0.2,0.4,0.4,0.6,0.6c0.5,0.5,1.1,0.9,1.7,1.2
			c0.3,0.1,0.6,0.3,0.8,0.5c-0.1-0.1-0.2-0.2-0.3-0.3l0,0c0.1,0.1,0.3,0.2,0.4,0.3c0.3,0.1,0.6,0.3,1,0.4c0.4,0,0.7,0.1,1.1,0.1
			c0.4,0,0.7-0.1,1.1-0.1c0.5-0.1,1-0.4,1.4-0.7c0.3-0.2,0.5-0.4,0.7-0.7c0.2-0.2,0.4-0.5,0.5-0.9c0.2-0.3,0.3-0.6,0.3-1
			C196.8,88.7,196.7,88.2,196.6,87.6z"/>
		<path class="st3" d="M354.6,49.9c-0.3-1-0.9-2.1-1.7-2.8c-1-0.9-2.4-1.8-3.8-1.6c-0.6,0.1-1.1,0.1-1.7,0.2
			c-1.6,0.5-2.8,1.4-3.7,2.8c-0.3,0.5-0.6,1-0.9,1.5c-0.7,1.2-1.4,3.3-1.3,4.7c0.1,1.1,0.3,2,0.7,3c0.4,0.8,0.6,1.3,1.3,2.1
			c0.1,0.1,0.1,0.1,0.2,0.2c1.4,1.4,3.5,2,5.4,1.4c0.1,0,0.2,0,0.3-0.1c1-0.3,1.5-0.6,2.2-1.1c0.3-0.2,0.6-0.4,0.9-0.7
			c0.2-0.2,0.5-0.5,0.6-0.8c0.2-0.3,0.4-0.5,0.6-0.8c0.4-0.7,0.6-1.5,0.8-2.3c0.2-0.8,0.3-1.7,0.3-2.5
			C354.8,52.2,354.9,50.9,354.6,49.9z"/>
		<path class="st3" d="M378.3,48.3c-0.1-0.2-0.1-0.4-0.2-0.6c-0.2-0.6-0.5-1-0.9-1.4c-0.2-0.1-0.3-0.3-0.5-0.4
			c-0.2-0.2-0.5-0.4-0.7-0.5c-0.4-0.2-0.8-0.3-1.1-0.5c-0.4-0.1-0.8-0.1-1.2-0.2c-0.1,0-0.1,0-0.2,0c-0.4,0-0.8,0.1-1.1,0.1
			c-0.1,0-0.2,0-0.3,0.1c-0.6,0.2-1.1,0.5-1.5,0.9c-0.3,0.3-0.6,0.7-0.7,1.1c-0.2,0.4-0.3,0.9-0.3,1.3c0,0.3,0.1,0.7,0.1,1
			c0,0.2,0,0.5,0.1,0.7c0,0.2,0,0.4,0.1,0.6c0,0.1,0.1,0.1,0.1,0.2c0,0.6,0.1,1,0.3,1.4c0,0,0,0.1,0,0.1c0.2,0.6,0.5,1.1,0.9,1.6
			c0.5,0.4,1,0.8,1.6,0.9c0.5,0.1,1.1,0.1,1.6,0c0.5,0,0.9-0.1,1.4-0.3c0.4-0.1,0.7-0.3,0.9-0.5c0.5-0.3,0.8-0.7,1.1-1.2
			c0.3-0.4,0.5-1.1,0.6-1.4c0.1-0.1,0.1-0.3,0.1-0.4c0.1-0.4,0.1-0.9,0.2-1.3c0-0.1,0-0.1,0-0.2C378.5,49.2,378.5,48.7,378.3,48.3z"
			/>
		<path class="st3" d="M391.1,63.9c-0.6-1.9-2-3.4-3.9-3.9c-2-0.5-4,0.1-5.4,1.4c-0.2,0.2-0.4,0.4-0.7,0.6c-1,0.9-1.6,2-2,3.3
			c-0.1,0.3-0.2,0.6-0.3,0.8c-0.1,0.2-0.1,0.3-0.1,0.5c-0.2,1.4-0.4,2.1,0,3.5c0.3,1,0.8,1.9,1.6,2.7c0.6,0.6,1.2,1,2,1.3
			c0.7,0.4,1.5,0.6,2.4,0.5c1.1,0,2.1-0.3,3.1-0.8c1-0.5,2.2-1.8,2.7-2.8c0.3-0.7,0.7-1.5,1-2.3C392,67.2,391.6,65.5,391.1,63.9z"/>
	</g>
</g>
</svg>
